<?xml version="1.0" encoding="utf-8"?>
<!-- Generator: Adobe Illustrator 16.0.0, SVG Export Plug-In . SVG Version: 6.00 Build 0)  -->
<!DOCTYPE svg PUBLIC "-//W3C//DTD SVG 1.1//EN" "http://www.w3.org/Graphics/SVG/1.1/DTD/svg11.dtd">
<svg version="1.1" id="basis" xmlns="http://www.w3.org/2000/svg" xmlns:xlink="http://www.w3.org/1999/xlink" x="0px" y="0px"
	 width="24px" height="35.227px" viewBox="0 0 24 35.227" enable-background="new 0 0 24 35.227" xml:space="preserve">
<path fill-rule="evenodd" clip-rule="evenodd" fill="#666666" d="M5.855,22.192c0,0.606,0,1.111,0,1.737c0.353,0,0.687,0,1.021,0
	c4.945,0,9.89-0.001,14.835,0c1.179,0,1.272,0.093,1.273,1.288c0.004,2.443-0.013,4.888,0.01,7.331
	c0.009,0.76-0.273,1.096-1.057,1.094c-6.354-0.014-12.708-0.014-19.061-0.004c-0.713,0.001-1.079-0.241-1.04-1.003
	c0.033-0.66,0.039-1.324-0.002-1.983c-0.052-0.846,0.405-1.003,1.124-1c5.003,0.014,10.005,0.006,15.007,0.006
	c0.31,0,0.617,0,0.981,0c0-0.596,0-1.1,0-1.747c-0.335,0-0.665,0-0.995,0c-4.945,0-9.89,0-14.835,0
	c-1.186,0-1.272-0.086-1.272-1.277c-0.003-2.415-0.003-4.83-0.001-7.244c0.001-1.043,0.12-1.168,1.118-1.168
	c6.267-0.003,12.534-0.004,18.801-0.003c1.054,0,1.216,0.159,1.224,1.176c0.004,0.546,0.005,1.092,0.002,1.639
	c-0.005,0.972-0.18,1.154-1.158,1.155c-4.976,0.003-9.948,0.002-14.922,0.003C6.572,22.192,6.237,22.192,5.855,22.192z"/>
<path fill-rule="evenodd" clip-rule="evenodd" fill="#666666" d="M5.842,10.75c0,0.621,0,1.133,0,1.735
	c1.546,0,3.063,0.033,4.579-0.013c0.836-0.026,1.147,0.304,1.102,1.115c-0.039,0.687,0.072,1.392-0.045,2.061
	c-0.053,0.307-0.489,0.773-0.761,0.779c-2.67,0.061-5.343,0.041-8.012,0.042c-0.612,0.001-0.868-0.323-0.867-0.921
	c0.007-2.642,0.003-5.285,0.001-7.928c0-0.602,0.296-0.89,0.902-0.888c2.642,0.005,5.285,0.005,7.927,0.003
	c0.576,0,0.836,0.303,0.842,0.851c0.008,0.718-0.012,1.437,0.011,2.154c0.02,0.691-0.275,0.99-0.977,0.975
	c-1.264-0.025-2.527-0.008-3.793-0.003C6.471,10.713,6.188,10.735,5.842,10.75z"/>
<path fill-rule="evenodd" clip-rule="evenodd" fill="#666666" d="M22.988,7.887c-0.002-0.956-0.201-1.15-1.165-1.153
	c-1.489-0.003-2.978,0-4.584,0c0-1.693-0.013-3.24,0.006-4.787c0.008-0.653-0.269-0.956-0.92-0.946
	c-0.689,0.011-1.378,0.013-2.067,0c-0.673-0.013-0.998,0.275-0.997,0.972c0.009,4.48,0.01,8.96-0.002,13.44
	c-0.003,0.775,0.331,1.067,1.096,1.061c2.527-0.023,5.055-0.021,7.582,0.003c0.785,0.007,1.069-0.348,1.063-1.095
	C22.983,12.884,22.994,10.386,22.988,7.887z M18.22,13.561c-2.329-0.014-2.086,0.169-2.09-2.077c-0.003-1.874,0-1.874,1.867-1.871
	c0.029,0,0.058,0,0.087,0c2.221-0.013,2.067-0.139,2.055,2.031C20.154,13.594,20.297,13.573,18.22,13.561z"/>
</svg>
