<?xml version="1.0" encoding="utf-8"?>
<!-- Generator: Adobe Illustrator 16.0.0, SVG Export Plug-In . SVG Version: 6.00 Build 0)  -->
<!DOCTYPE svg PUBLIC "-//W3C//DTD SVG 1.1//EN" "http://www.w3.org/Graphics/SVG/1.1/DTD/svg11.dtd">
<svg version="1.1" id="basis" xmlns="http://www.w3.org/2000/svg" xmlns:xlink="http://www.w3.org/1999/xlink" x="0px" y="0px"
	 width="32px" height="32px" viewBox="0 0 32 32" enable-background="new 0 0 32 32" xml:space="preserve">
<path fill="#666666" d="M27.461,13.378c0.158-0.607,0.246-1.245,0.246-1.901C27.707,7.349,24.352,4,20.221,4
	c-4.779,0.007-5.417,3.643-5.417,3.643s-2.009-2.48-5.549-2.052c-3.187,0.635-5.271,3.503-5.271,6.428
	c0,0.503,0.073,0.983,0.201,1.453c-2.387,0.871-4.09,3.168-4.09,5.859c0,3.446,2.794,6.244,6.243,6.244h19.24
	c3.454,0,6.247-2.798,6.247-6.244C31.826,16.535,29.99,14.173,27.461,13.378z M15.345,24.325H7.723
	c-3.002,0-5.425-2.362-5.425-5.275c0-2.272,1.477-4.213,3.553-4.949c-0.111-0.397-0.175-0.803-0.175-1.229
	c0-2.471,1.81-4.893,4.578-5.43c3.076-0.36,4.863,2.466,4.863,2.466s0.512-3.803,4.665-3.809c3.588,0,6.195,2.883,6.195,6.371
	c0,0.554-0.077,1.092-0.213,1.607c2.197,0.67,4.101,2.61,4.101,4.973c0,2.913-2.427,5.275-5.431,5.275h-8.355"/>
<g>
	<path fill="#666666" d="M12.236,22.083c-0.377,0.146-1.131,0.358-2.011,0.358c-0.985,0-1.798-0.251-2.436-0.86
		c-0.562-0.542-0.909-1.411-0.909-2.426c0-1.943,1.344-3.364,3.528-3.364c0.755,0,1.354,0.165,1.634,0.299l-0.213,0.687
		c-0.348-0.164-0.783-0.28-1.44-0.28c-1.585,0-2.619,0.986-2.619,2.62c0,1.653,0.986,2.629,2.513,2.629
		c0.552,0,0.929-0.077,1.122-0.174v-1.943H10.09v-0.677h2.146V22.083z"/>
	<path fill="#666666" d="M18.484,22.083c-0.377,0.146-1.131,0.358-2.011,0.358c-0.985,0-1.798-0.251-2.436-0.86
		c-0.562-0.542-0.909-1.411-0.909-2.426c0-1.943,1.344-3.364,3.529-3.364c0.754,0,1.353,0.165,1.633,0.299l-0.213,0.687
		c-0.348-0.164-0.783-0.28-1.44-0.28c-1.585,0-2.619,0.986-2.619,2.62c0,1.653,0.986,2.629,2.514,2.629
		c0.551,0,0.928-0.077,1.121-0.174v-1.943h-1.315v-0.677h2.146V22.083z"/>
	<path fill="#666666" d="M19.764,15.955c0.513-0.087,1.122-0.146,1.789-0.146c1.209,0,2.069,0.291,2.639,0.812
		c0.59,0.532,0.928,1.286,0.928,2.339c0,1.063-0.338,1.934-0.938,2.533c-0.618,0.609-1.623,0.938-2.89,0.938
		c-0.609,0-1.103-0.029-1.528-0.077V15.955z M20.605,21.716c0.212,0.029,0.521,0.039,0.851,0.039c1.808,0,2.774-1.005,2.774-2.765
		c0.01-1.537-0.86-2.513-2.639-2.513c-0.436,0-0.765,0.039-0.986,0.087V21.716z"/>
</g>
</svg>
