<?xml version="1.0" encoding="utf-8"?>
<!-- Generator: Adobe Illustrator 16.0.0, SVG Export Plug-In . SVG Version: 6.00 Build 0)  -->
<!DOCTYPE svg PUBLIC "-//W3C//DTD SVG 1.1//EN" "http://www.w3.org/Graphics/SVG/1.1/DTD/svg11.dtd">
<svg version="1.1" id="basis" xmlns="http://www.w3.org/2000/svg" xmlns:xlink="http://www.w3.org/1999/xlink" x="0px" y="0px"
	 width="32px" height="32px" viewBox="0 0 32 32" enable-background="new 0 0 32 32" xml:space="preserve">
<path fill="#666666" d="M22.049,17.163c0.008-0.127,0.02-0.252,0.02-0.381c0-3.525-2.858-6.384-6.384-6.384
	s-6.384,2.858-6.384,6.384c0,0.129,0.012,0.254,0.019,0.381H8.568v6.934h14.375v-6.934H22.049z"/>
<path fill="#666666" d="M5.676,16.655c0-0.561-0.277-1.015-0.62-1.015H1.182c-0.342,0-0.62,0.454-0.62,1.015l0,0
	c0,0.561,0.278,1.015,0.62,1.015h3.874C5.398,17.67,5.676,17.216,5.676,16.655L5.676,16.655z"/>
<path fill="#666666" d="M30.562,16.233c0-0.561-0.277-1.015-0.62-1.015h-3.874c-0.342,0-0.62,0.454-0.62,1.015l0,0
	c0,0.561,0.278,1.015,0.62,1.015h3.874C30.284,17.248,30.562,16.794,30.562,16.233L30.562,16.233z"/>
<path fill="#666666" d="M15.562,7.552c0.561,0,1.015-0.277,1.015-0.62V3.058c0-0.342-0.454-0.62-1.015-0.62l0,0
	c-0.561,0-1.015,0.278-1.015,0.62v3.874C14.547,7.274,15.001,7.552,15.562,7.552L15.562,7.552z"/>
<path fill="#666666" d="M25.589,5.743c-0.396-0.396-0.913-0.521-1.156-0.278l-2.739,2.739c-0.241,0.241-0.117,0.76,0.279,1.156l0,0
	c0.396,0.396,0.914,0.521,1.156,0.278l2.739-2.739C26.11,6.657,25.985,6.14,25.589,5.743L25.589,5.743z"/>
<path fill="#666666" d="M4.45,6.379C4.054,6.775,3.929,7.293,4.171,7.535l2.739,2.739c0.242,0.242,0.76,0.118,1.156-0.278l0,0
	C8.463,9.6,8.587,9.081,8.346,8.84L5.606,6.101C5.364,5.858,4.847,5.983,4.45,6.379L4.45,6.379z"/>
<rect x="3.119" y="26.252" fill="#666666" width="24.885" height="3.156"/>
</svg>
