<?xml version="1.0" encoding="utf-8"?>
<!-- Generator: Adobe Illustrator 16.0.0, SVG Export Plug-In . SVG Version: 6.00 Build 0)  -->
<!DOCTYPE svg PUBLIC "-//W3C//DTD SVG 1.1//EN" "http://www.w3.org/Graphics/SVG/1.1/DTD/svg11.dtd">
<svg version="1.1" id="basis" xmlns="http://www.w3.org/2000/svg" xmlns:xlink="http://www.w3.org/1999/xlink" x="0px" y="0px"
	 width="32px" height="32px" viewBox="0 0 32 32" enable-background="new 0 0 32 32" xml:space="preserve">
<g>
	<path fill="#666666" d="M16.062,0.908c-3.061,0-5.54,2.481-5.54,5.54c0,0.273,0.065,24.492,0.065,24.492h10.948
		c0,0,0.068-24.217,0.068-24.492C21.604,3.389,19.123,0.908,16.062,0.908z M20.483,29.479h-8.739V6.455h8.739V29.479z"/>
	<circle fill="#666666" cx="16.062" cy="10.502" r="3.088"/>
	<circle fill="#666666" cx="16.062" cy="17.908" r="3.087"/>
	<circle fill="#666666" cx="16.062" cy="25.332" r="3.087"/>
	<polygon fill="#666666" points="22.528,8.029 22.528,13.591 28.093,8.029 	"/>
	<polygon fill="#666666" points="22.528,20.688 28.093,15.127 22.528,15.127 	"/>
	<polygon fill="#666666" points="22.528,28.114 28.093,22.55 22.528,22.55 	"/>
	<polygon fill="#666666" points="9.47,13.591 9.47,8.029 3.907,8.029 	"/>
	<polygon fill="#666666" points="9.47,20.688 9.47,15.127 3.907,15.127 	"/>
	<polygon fill="#666666" points="9.47,28.114 9.47,22.55 3.907,22.55 	"/>
</g>
</svg>
