<?xml version="1.0" encoding="utf-8"?>
<!-- Generator: Adobe Illustrator 16.0.0, SVG Export Plug-In . SVG Version: 6.00 Build 0)  -->
<!DOCTYPE svg PUBLIC "-//W3C//DTD SVG 1.1//EN" "http://www.w3.org/Graphics/SVG/1.1/DTD/svg11.dtd">
<svg version="1.1" id="basis" xmlns="http://www.w3.org/2000/svg" xmlns:xlink="http://www.w3.org/1999/xlink" x="0px" y="0px"
	 width="32px" height="32px" viewBox="0 0 32 32" enable-background="new 0 0 32 32" xml:space="preserve">
<path fill="#666666" d="M27.461,14.339c0.158-0.607,0.246-1.245,0.246-1.901c0-4.129-3.355-7.478-7.486-7.478
	c-4.779,0.007-5.417,3.643-5.417,3.643s-2.009-2.48-5.549-2.052c-3.187,0.635-5.271,3.503-5.271,6.428
	c0,0.503,0.073,0.983,0.201,1.453c-2.387,0.871-4.09,3.168-4.09,5.859c0,3.446,2.794,6.244,6.243,6.244h19.24
	c3.454,0,6.247-2.798,6.247-6.244C31.826,17.496,29.99,15.134,27.461,14.339z M24.435,25.286h-8.355
	c0.625-0.63,4.924-5.07,4.924-5.07s0.621-0.616-0.202-0.616c-0.822,0-2.132,0-2.132,0s0-0.357,0-0.902c0-1.683,0-4.963,0-6.217
	c0,0,0.008-0.294-0.37-0.294c-0.382,0-4.708,0-5.239,0c-0.533,0-0.439,0.351-0.439,0.351c0,1.291,0,4.46,0,6.205
	c0,0.607,0,1.004,0,1.004s-1.634,0-2.31,0s-0.055,0.588-0.055,0.588l5.089,4.951H7.723c-3.002,0-5.425-2.362-5.425-5.275
	c0-2.272,1.477-4.213,3.553-4.949c-0.111-0.397-0.175-0.803-0.175-1.229c0-2.471,1.81-4.893,4.578-5.43
	c3.076-0.36,4.863,2.466,4.863,2.466s0.512-3.803,4.665-3.809c3.588,0,6.195,2.883,6.195,6.371c0,0.554-0.077,1.092-0.213,1.607
	c2.197,0.67,4.101,2.61,4.101,4.973C29.865,22.924,27.438,25.286,24.435,25.286z"/>
</svg>
