<?xml version="1.0" encoding="utf-8"?>
<!-- Generator: Adobe Illustrator 16.0.0, SVG Export Plug-In . SVG Version: 6.00 Build 0)  -->
<!DOCTYPE svg PUBLIC "-//W3C//DTD SVG 1.1//EN" "http://www.w3.org/Graphics/SVG/1.1/DTD/svg11.dtd">
<svg version="1.1" id="basis" xmlns="http://www.w3.org/2000/svg" xmlns:xlink="http://www.w3.org/1999/xlink" x="0px" y="0px"
	 width="32px" height="32px" viewBox="0 0 32 32" enable-background="new 0 0 32 32" xml:space="preserve">
<g>
	<g>
		<path fill="#666666" d="M25.533,2.546H7.086c-0.453,0-0.821,0.368-0.821,0.822v20.807c0,0.453,0.368,0.821,0.821,0.821h18.447
			c0.454,0,0.822-0.368,0.822-0.821V3.368C26.355,2.914,25.987,2.546,25.533,2.546z M9.045,5.834c0-0.455,0.368-0.823,0.82-0.823
			h12.678c0.453,0,0.82,0.368,0.82,0.823v10c0,0.455-0.367,0.822-0.82,0.822H9.865c-0.452,0-0.82-0.368-0.82-0.822V5.834z
			 M9.229,22.951c-0.885,0-1.602-0.716-1.602-1.601c0-0.883,0.717-1.599,1.602-1.599c0.882,0,1.599,0.716,1.599,1.599
			C10.828,22.235,10.111,22.951,9.229,22.951z M23.363,22.951c-0.883,0-1.599-0.716-1.599-1.601c0-0.883,0.716-1.599,1.599-1.599
			c0.886,0,1.602,0.716,1.602,1.599C24.965,22.235,24.249,22.951,23.363,22.951z"/>
		<polygon fill="#666666" points="26.974,30.399 23.327,24.997 21.257,24.997 22.397,26.955 10.158,26.955 11.3,24.997 
			9.229,24.997 5.583,30.399 8.153,30.399 9.229,28.553 9.229,28.554 23.327,28.554 24.404,30.399 		"/>
	</g>
</g>
</svg>
