<?xml version="1.0" encoding="utf-8"?>
<!-- Generator: Adobe Illustrator 16.0.0, SVG Export Plug-In . SVG Version: 6.00 Build 0)  -->
<!DOCTYPE svg PUBLIC "-//W3C//DTD SVG 1.1//EN" "http://www.w3.org/Graphics/SVG/1.1/DTD/svg11.dtd">
<svg version="1.1" id="basis" xmlns="http://www.w3.org/2000/svg" xmlns:xlink="http://www.w3.org/1999/xlink" x="0px" y="0px"
	 width="32px" height="32px" viewBox="0 0 32 32" enable-background="new 0 0 32 32" xml:space="preserve">
<g>
	<path fill="#666666" d="M13.227,19.989v0.101c0.421,1.435,1.144,2.534,2.167,3.294c1.024,0.761,2.287,1.142,3.79,1.142
		c1.713,0,3.421-0.531,5.124-1.594v3.273c-1.761,0.918-3.799,1.378-6.115,1.378c-0.87,0-1.693-0.072-2.469-0.215
		c-0.774-0.144-1.494-0.359-2.16-0.646c-0.664-0.287-1.271-0.644-1.822-1.069c-0.55-0.426-1.044-0.917-1.479-1.471
		c-0.436-0.555-0.854-1.275-1.256-2.161c-0.402-0.885-0.603-1.528-0.603-1.93v-0.101H6.337l0.56-2.669h1.148
		c-0.02-0.172-0.028-0.426-0.028-0.761l0.028-0.948v-0.086H6.337l0.56-2.67h1.536v-0.086c0.632-2.555,1.764-4.445,3.395-5.669
		c1.632-1.225,3.754-1.837,6.365-1.837c2.144,0,4.11,0.278,5.9,0.833v3.459c-2.134-0.919-3.967-1.378-5.498-1.378
		c-2.842,0-4.65,1.559-5.426,4.679h8.698l-0.53,2.67h-8.584v0.086c-0.019,0.182-0.029,0.459-0.029,0.833l0.029,0.79v0.086h8.254
		l-0.56,2.669H13.227z"/>
</g>
</svg>
