<?xml version="1.0" encoding="utf-8"?>
<!-- Generator: Adobe Illustrator 16.0.0, SVG Export Plug-In . SVG Version: 6.00 Build 0)  -->
<!DOCTYPE svg PUBLIC "-//W3C//DTD SVG 1.1//EN" "http://www.w3.org/Graphics/SVG/1.1/DTD/svg11.dtd">
<svg version="1.1" id="basis" xmlns="http://www.w3.org/2000/svg" xmlns:xlink="http://www.w3.org/1999/xlink" x="0px" y="0px"
	 width="32px" height="32px" viewBox="0 0 32 32" enable-background="new 0 0 32 32" xml:space="preserve">
<g>
	<rect x="-84" y="-40" fill="#666666" width="33.451" height="11.803"/>
	<rect x="-84" y="-16.921" fill="#666666" width="64" height="11.803"/>
	<rect x="-84" y="4.197" fill="#666666" width="64" height="11.803"/>
	<rect x="-41.23" y="-40" fill="#666666" width="21.23" height="15.924"/>
</g>
<g>
	<path fill="#666666" d="M16.062-39.092c-3.061,0-5.54,2.481-5.54,5.54c0,0.273,0.065,24.492,0.065,24.492h10.948
		c0,0,0.068-24.217,0.068-24.492C21.604-36.611,19.123-39.092,16.062-39.092z M20.483-10.521h-8.739v-23.023h8.739V-10.521z"/>
	<circle fill="#666666" cx="16.062" cy="-29.498" r="3.088"/>
	<circle fill="#666666" cx="16.062" cy="-22.092" r="3.087"/>
	<circle fill="#666666" cx="16.062" cy="-14.668" r="3.087"/>
	<polygon fill="#666666" points="22.528,-31.971 22.528,-26.409 28.093,-31.971 	"/>
	<polygon fill="#666666" points="22.528,-19.312 28.093,-24.873 22.528,-24.873 	"/>
	<polygon fill="#666666" points="22.528,-11.886 28.093,-17.45 22.528,-17.45 	"/>
	<polygon fill="#666666" points="9.47,-26.409 9.47,-31.971 3.907,-31.971 	"/>
	<polygon fill="#666666" points="9.47,-19.312 9.47,-24.873 3.907,-24.873 	"/>
	<polygon fill="#666666" points="9.47,-11.886 9.47,-17.45 3.907,-17.45 	"/>
</g>
<polygon fill="#666666" points="79.112,-26.978 69.52,-26.978 69.52,-36.57 64.783,-36.57 64.783,-26.978 55.19,-26.978 
	55.19,-22.24 64.783,-22.24 64.783,-12.648 69.52,-12.648 69.52,-22.24 79.112,-22.24 "/>
<path fill="#666666" d="M131.104-25.933l-3.026-7.775c-0.137-0.47-0.582-1.051-1.303-1.051h-6.774h-6.775
	c-0.721,0-1.166,0.582-1.304,1.051l-3.026,7.775c-0.219,0.584-2.422,1.136-2.52,2.605v8.928c0,0.392,0.318,0.708,0.708,0.708h2.403
	c0.391,0,0.708-0.317,0.708-0.708v-1.982h19.61v1.982c0,0.392,0.316,0.708,0.708,0.708h2.402c0.392,0,0.708-0.317,0.708-0.708
	v-8.928C133.527-24.796,131.322-25.348,131.104-25.933z M112.412-21.444c0,0.391-0.317,0.709-0.708,0.709h-2.073
	c-0.392,0-0.708-0.318-0.708-0.709v-1.175c0-0.391,0.316-0.708,0.708-0.708h2.073c0.391,0,0.708,0.317,0.708,0.708V-21.444z
	 M110.311-25.988l2.796-6.81c0.206-0.306,0.502-0.612,1.123-0.612h5.771h5.771c0.619,0,0.916,0.307,1.122,0.612l2.796,6.81h-9.689
	H110.311z M131.065-21.444c0,0.391-0.315,0.709-0.708,0.709h-2.072c-0.392,0-0.709-0.318-0.709-0.709v-1.175
	c0-0.391,0.317-0.708,0.709-0.708h2.072c0.393,0,0.708,0.317,0.708,0.708V-21.444z"/>
<g>
	<g>
		<path fill="#666666" d="M181.533-37.454h-18.447c-0.453,0-0.821,0.368-0.821,0.822v20.807c0,0.453,0.368,0.821,0.821,0.821h18.447
			c0.454,0,0.822-0.368,0.822-0.821v-20.807C182.355-37.086,181.987-37.454,181.533-37.454z M165.045-34.166
			c0-0.455,0.368-0.823,0.82-0.823h12.678c0.453,0,0.82,0.368,0.82,0.823v10c0,0.455-0.367,0.822-0.82,0.822h-12.678
			c-0.452,0-0.82-0.368-0.82-0.822V-34.166z M165.229-17.049c-0.885,0-1.602-0.716-1.602-1.601c0-0.883,0.717-1.599,1.602-1.599
			c0.882,0,1.599,0.716,1.599,1.599C166.828-17.765,166.111-17.049,165.229-17.049z M179.363-17.049
			c-0.883,0-1.599-0.716-1.599-1.601c0-0.883,0.716-1.599,1.599-1.599c0.886,0,1.602,0.716,1.602,1.599
			C180.965-17.765,180.249-17.049,179.363-17.049z"/>
		<polygon fill="#666666" points="182.974,-9.601 179.327,-15.003 177.257,-15.003 178.397,-13.045 166.158,-13.045 167.3,-15.003 
			165.229,-15.003 161.583,-9.601 164.153,-9.601 165.229,-11.447 165.229,-11.446 179.327,-11.446 180.404,-9.601 		"/>
	</g>
</g>
<g>
	<path fill="#666666" d="M29.706,47.436c0,0-1.861-0.375-2.975-0.109c-0.616,0.082-0.772,0.534-0.772,0.534
		c-0.057,0.156-0.029,0.383,0.036,0.652c0.028,0.099,0.052,0.199,0.077,0.298c0.268,0.947,0.45,2.19,0.256,4.085
		c-0.565,4.838-4.435,8.392-9.289,8.905v5.713h6.219v-5.131c0,0,4.422-4.056,5.433-5.804C28.69,56.579,31.417,52.321,29.706,47.436z
		"/>
	<path fill="#666666" d="M5.448,51.384c0-0.038,0.005-0.073,0.005-0.11c0.001-0.174,0.009-0.344,0.026-0.512
		c0.06-0.992,0.253-1.946,0.57-2.846c-0.004-0.019-0.002-0.04-0.009-0.056c0,0-0.156-0.452-0.772-0.534
		c-1.114-0.266-2.975,0.109-2.975,0.109c-1.711,4.886,1.016,9.144,1.016,9.144c1.011,1.748,5.433,5.804,5.433,5.804v5.131h6.219
		v-5.698C9.634,61.322,5.448,56.836,5.448,51.384z"/>
	<path fill="#666666" d="M25.512,50.954c0-5.314-4.309-9.621-9.621-9.621c-5.313,0-9.621,4.307-9.621,9.621
		c0,5.313,4.308,9.62,9.621,9.62C21.203,60.574,25.512,56.268,25.512,50.954z M19.508,45.152l0.688-0.461
		c0,0-0.29-0.739-0.241-1.104c0.168-0.081,0.845,0.272,1.418,0.876c-0.387,1.435-1.289,1.263-1.289,1.263
		S19.42,45.712,19.508,45.152z M13.709,53.622c-0.043,0.215-0.303,0.732-0.474,1.077c-0.171,0.346-0.259,0.473-0.474,0.644
		c-0.214,0.177-0.346,0.475-0.346,0.475l-0.042,0.732c0,0,0.084,0.604,0.214,0.82c0.129,0.213-0.461,1.497-0.461,1.497
		c-0.375-0.076-0.582-0.509-0.712-0.852c-0.13-0.348-0.303-0.527-0.259-0.914c0.045-0.389-0.337-0.592-0.463-0.809
		c-0.127-0.219-0.301-0.516-0.301-0.734c0-0.216-0.473-0.514-0.473-0.514s-0.862-0.39-0.991-0.562
		c-0.129-0.173-0.26-0.908-0.303-1.206c-0.041-0.299,0.129-1.074,0.129-1.074s0.349-0.263,0.13-0.477
		c-0.216-0.214-0.259-0.776-0.259-0.776l-0.389-0.429c0,0-0.301-0.428-0.341-0.646c-0.046-0.217,0-0.345,0.04-0.561
		c0.043-0.218-0.086-0.604-0.086-0.816c1.608-3.95,4.307-4.868,4.307-4.868l0.217,0.904c0,0-0.475,0.127-0.73,0.043
		c-0.26-0.087-0.39-0.087-0.39-0.087l-0.344,0.475c0,0-0.131,0.302-0.175,0.474c-0.042,0.172,0.084,0.43,0.084,0.43
		s0.606,0.044,0.606-0.13c0-0.172-0.086-0.255-0.086-0.255l-0.086-0.303c0,0,0.39-0.216,1.42-0.132
		c1.035,0.087,0.649,0.819,1.079,0.993c0.432,0.174-0.347,0.772-0.518,1.118c-0.171,0.345-0.432-0.432-0.432-0.432
		s0.261-0.298-0.171-0.386c-0.432-0.085-0.717,0.775-0.499,0.733c0.216-0.044,0.455,0.231,0.414,0.444
		c-0.046,0.216-0.046,0.201-0.262,0.675c-0.213,0.475-0.683,0.821-0.683,0.821s-0.22-0.133-0.092,0.125
		c0.132,0.259-0.042,0.864-0.042,1.033c0,0.173-0.517-0.3-0.602-0.731c-0.089-0.431-0.593-0.057-0.764-0.012
		c-0.176,0.045-0.488-0.075-0.571-0.29c-0.087-0.215-0.864,0.43-1.079,0.559c-0.217,0.129-0.128,0.475,0.215,0.306
		c0.345-0.177,0.646-0.045,0.561,0.303c-0.087,0.34-0.43,0.127-0.386,0.34c0.041,0.216,0.386,0.434,0.471,0.734
		c0.088,0.299,0.906,0.042,1.164-0.085c0.257-0.132,0.991-0.261,1.077,0.085c0.088,0.343,0.903,0.472,1.206,0.557
		c0.303,0.087,0.904,0.128,1.248,0.475C14.354,52.762,13.753,53.405,13.709,53.622z M15.645,43.545
		c-0.042,0.429-0.729,0.99-0.644,1.164c0.087,0.173,0,0.908-0.604,0.263s-1.208-0.865-1.162-1.298
		c0.01-0.086,0.623-0.224,0.634-0.372c0.913-0.851,2.371-0.676,2.481-0.476C16.092,43.257,15.688,43.111,15.645,43.545z
		 M20.929,57.599c-0.459-0.46-0.229-0.862-0.229-0.862l0.129-0.688l0.072-1.164c0,0,0-1.203-1.148-0.631
		c-1.234,0.313-0.721,0.313-1.969,0.401c-1.248,0.084-1.042-2.546-1.042-2.546c0-3.942,3.023-0.968,3.023-0.968
		c1.723,1.147,1.953-0.953,1.953-0.953l1.263-0.453l0.115-0.578l-0.183-0.803l-1.835-0.757c0,0-0.178,0.599,0.293,1.33
		c0,0-0.157,0.832-0.543,0.616l-1.063-0.534c0,0-0.358-0.153-0.934,0.189c-0.572,0.345-1.548-0.017-1.548-0.017
		s0.078-0.574,0.684-0.875l0.496-0.327c0,0-0.133-0.59-0.018-1.047c0.113-0.462,0.315-0.058,0.773-0.402
		c0.459-0.343,0.777,0.674,1.464,0.559c0.688-0.113,0.345-0.229,0.805-0.459c0.461-0.229,0.805,0.459,0.805,0.459l0.918,0.115
		c0,0-0.145-1.04-0.08-0.77c0.581,1,1.433,3.665,1.118,4.14C24.06,50.492,23.9,50.42,23.9,50.42h-1.149l0.688,0.806
		c0,0,0.334,0.49,0.806,0.457C23.935,55.285,20.929,57.599,20.929,57.599z"/>
</g>
<path fill-rule="evenodd" clip-rule="evenodd" fill="#666666" d="M274.857-30.302c-0.401-1.263-0.772-2.436-1.143-3.605
	c-4.346,0.802-8.053,4.553-8.849,9.271c-0.928,5.48,1.956,10.462,6.636,12.637c4.862,2.26,10.236,0.895,13.566-2.792
	c3.386-3.748,4.557-9.953,0.126-15.573c0.615-0.483,1.25-0.947,1.84-1.459c0.295-0.255,0.486-0.21,0.694,0.059
	c1.566,2.04,2.615,4.286,3.077,6.85c0.47,2.606,0.196,5.113-0.756,7.517c-1.997,5.047-5.725,8.051-11.06,9.118
	c-3.229,0.646-6.262,0.041-9.132-1.38c-2.469-1.222-4.395-3.089-5.806-5.495c-1.417-2.415-2.154-5.019-2.052-7.78
	c0.133-3.513,1.319-6.668,3.733-9.321c1.818-1.999,3.984-3.402,6.572-4.16c0.473-0.138,0.618-0.336,0.413-0.855
	c-0.277-0.705-0.438-1.458-0.624-2.196c-0.04-0.155,0.023-0.336,0.04-0.507c0.147,0.015,0.305-0.002,0.438,0.049
	c2.159,0.844,4.313,1.7,6.474,2.546c0.443,0.175,0.611,0.494,0.348,0.878c-1.348,1.958-2.72,3.897-4.092,5.838
	C275.228-30.557,275.095-30.491,274.857-30.302z"/>
<path fill-rule="evenodd" clip-rule="evenodd" fill="#666666" d="M274.574-26.77c0,1.713,0,3.435,0,5.195c-0.22,0-0.403,0-0.656,0
	c0-1.017,0-2.015,0-3.014c-0.063-0.01-0.128-0.021-0.191-0.03c-0.142,0.605-0.285,1.209-0.422,1.814
	c-0.057,0.252-0.059,0.522-0.15,0.758c-0.075,0.191-0.251,0.342-0.381,0.51c-0.145-0.179-0.364-0.337-0.419-0.54
	c-0.174-0.643-0.279-1.304-0.425-1.956c-0.046-0.199-0.133-0.387-0.326-0.562c0,0.991,0,1.982,0,3.015
	c-0.253,0.017-0.44,0.03-0.674,0.045c0-1.763,0-3.482,0-5.254c0.311,0,0.626,0,1.017,0c0.238,1.206,0.486,2.445,0.731,3.685
	c0.042,0.008,0.084,0.016,0.126,0.024c0.062-0.182,0.147-0.36,0.181-0.547c0.146-0.808,0.289-1.617,0.407-2.429
	C273.487-26.718,273.795-27.028,274.574-26.77z"/>
<path fill-rule="evenodd" clip-rule="evenodd" fill="#666666" d="M281.65-21.559c-0.284,0-0.476,0-0.69,0
	c-0.148-0.53-0.273-1.072-0.464-1.59c-0.061-0.165-0.292-0.265-0.446-0.395c-0.101,0.156-0.276,0.306-0.289,0.47
	c-0.04,0.476-0.015,0.958-0.015,1.488c-0.24,0-0.439,0-0.665,0c0-1.743,0-3.46,0-5.249c0.487,0,0.944-0.042,1.392,0.01
	c0.564,0.067,1.021,0.342,0.979,0.995c-0.039,0.628-0.178,1.249-0.24,1.875c-0.028,0.286-0.011,0.586,0.047,0.867
	C281.36-22.588,281.509-22.099,281.65-21.559z M279.792-26.226c0,0.762,0,1.362,0,2.159c0.417-0.2,0.911-0.284,0.983-0.506
	c0.131-0.396,0.1-0.912-0.048-1.308C280.658-26.069,280.163-26.1,279.792-26.226z"/>
<path fill-rule="evenodd" clip-rule="evenodd" fill="#666666" d="M278.222-21.554c-0.314,0-0.486,0-0.687,0
	c-0.087-0.375-0.174-0.747-0.265-1.135c-0.289,0-0.549,0-0.788,0c-0.508,0.207,0.087,1.327-1.03,1.104
	c0.294-1.748,0.581-3.463,0.873-5.216c0.333,0,0.649,0,1.007,0C277.624-25.073,277.916-23.355,278.222-21.554z M276.893-25.417
	c-0.054-0.003-0.105-0.005-0.158-0.008c-0.096,0.636-0.191,1.273-0.291,1.947c0.288,0,0.507,0,0.781,0
	C277.106-24.167,276.999-24.792,276.893-25.417z"/>
<path fill-rule="evenodd" clip-rule="evenodd" fill="#666666" d="M267.638-22.974c0.193,0.146,0.464,0.251,0.563,0.446
	c0.213,0.419,0.543,0.57,0.898,0.357c0.381-0.228,0.434-0.661,0.146-1.019c-0.3-0.371-0.708-0.657-0.988-1.039
	c-0.274-0.372-0.566-0.798-0.638-1.234c-0.13-0.793,0.246-1.29,0.856-1.375c0.884-0.125,1.254,0.124,1.566,1.233
	c-0.352-0.171-0.575-0.278-0.798-0.389c-0.175-0.087-0.394-0.289-0.515-0.241c-0.18,0.071-0.443,0.371-0.404,0.479
	c0.156,0.443,0.332,0.937,0.655,1.252c0.542,0.53,1.091,1.021,1.059,1.844c-0.026,0.695-0.47,1.164-1.104,1.251
	c-0.573,0.078-1.113-0.293-1.337-0.924c-0.05-0.139-0.086-0.281-0.127-0.421C267.526-22.827,267.582-22.9,267.638-22.974z"/>
<path fill-rule="evenodd" clip-rule="evenodd" fill="#666666" d="M284.709-26.839c0,0.26,0,0.447,0,0.667
	c-0.285,0.023-0.541,0.045-0.856,0.071c0,1.493,0,2.974,0,4.524c-0.257,0.014-0.457,0.025-0.722,0.039c0-1.544,0-3.025,0-4.545
	c-0.224-0.022-0.409,0-0.551-0.068c-0.142-0.068-0.238-0.228-0.354-0.348c0.126-0.113,0.248-0.318,0.378-0.325
	C283.278-26.857,283.958-26.839,284.709-26.839z"/>
<path fill-rule="evenodd" clip-rule="evenodd" fill="#666666" d="M280.711-20.995c0.162,0.178,0.391,0.33,0.471,0.539
	c0.221,0.56,0.376,1.145,0.557,1.721c0.067-0.015,0.135-0.028,0.201-0.042c0-0.559-0.017-1.119,0.012-1.676
	c0.006-0.153,0.143-0.3,0.22-0.449c0.068,0.135,0.194,0.27,0.198,0.406c0.017,0.896,0.023,1.793-0.005,2.688
	c-0.005,0.163-0.191,0.32-0.293,0.479c-0.11-0.131-0.269-0.245-0.324-0.397c-0.213-0.589-0.394-1.189-0.586-1.786
	c-0.069,0.012-0.139,0.024-0.209,0.037c0,0.698,0,1.396,0,2.095c-0.07,0.023-0.141,0.047-0.209,0.071
	c-0.083-0.141-0.233-0.281-0.236-0.423c-0.021-1.026-0.011-2.051-0.011-3.076C280.567-20.871,280.64-20.933,280.711-20.995z"/>
<path fill-rule="evenodd" clip-rule="evenodd" fill="#666666" d="M270.274-19.144c0,0.328-0.036,0.662,0.017,0.981
	c0.023,0.146,0.221,0.263,0.34,0.394c0.127-0.12,0.266-0.23,0.381-0.364c0.104-0.122,0.183-0.268,0.272-0.403
	c0.058,0.168,0.201,0.372,0.151,0.496c-0.106,0.258-0.285,0.63-0.488,0.669c-0.287,0.056-0.892-0.131-0.898-0.245
	c-0.063-1.013-0.056-2.035,0.024-3.047c0.009-0.105,0.653-0.263,0.964-0.201c0.179,0.036,0.302,0.454,0.401,0.719
	c0.025,0.068-0.133,0.206-0.207,0.312c-0.071-0.087-0.145-0.173-0.213-0.262c-0.127-0.164-0.252-0.329-0.377-0.494
	c-0.123,0.197-0.306,0.381-0.357,0.596c-0.062,0.271-0.014,0.565-0.014,0.849H270.274z"/>
<path fill-rule="evenodd" clip-rule="evenodd" fill="#666666" d="M278.949-19.401c0.315,0.052,0.541,0.09,0.767,0.127
	c0.015,0.06,0.029,0.119,0.044,0.179c-0.242,0.093-0.485,0.187-0.77,0.296c0,0.286,0,0.607,0,0.999
	c0.211,0.014,0.425,0.002,0.624,0.051c0.138,0.033,0.254,0.149,0.38,0.228c-0.116,0.067-0.228,0.183-0.348,0.192
	c-0.344,0.026-0.691,0.009-1.084,0.009c0-1.203,0-2.351,0-3.5c0.486,0,0.963,0,1.439,0c0,0.041-0.001,0.08-0.001,0.12
	c-0.334,0.095-0.77,0.097-0.97,0.314C278.863-20.203,278.967-19.769,278.949-19.401z"/>
<path fill-rule="evenodd" clip-rule="evenodd" fill="#666666" d="M276.459-20.864c0.443,0,0.888,0,1.524,0
	c-0.359,1.021-0.706,2.003-1.042,2.962c0.124,0.078,0.158,0.107,0.197,0.122c0.249,0.095,0.499,0.187,0.75,0.279
	c-0.255,0.06-0.506,0.14-0.763,0.175c-0.21,0.03-0.427,0.007-0.841,0.007c0.397-1.125,0.754-2.134,1.126-3.184
	c-0.42-0.066-0.7-0.111-0.981-0.155C276.439-20.728,276.449-20.796,276.459-20.864z"/>
<path fill-rule="evenodd" clip-rule="evenodd" fill="#666666" d="M273.826-20.352c-0.307-0.161-0.507-0.266-0.708-0.371
	c0.01-0.041,0.02-0.082,0.029-0.123c0.525,0,1.049,0,1.573,0c-0.82,0.313-0.604,0.987-0.612,1.563
	c-0.007,0.502,0.005,1.004-0.004,1.505c-0.003,0.148-0.051,0.296-0.078,0.444c-0.066-0.003-0.133-0.008-0.2-0.011
	C273.826-18.366,273.826-19.388,273.826-20.352z"/>
<path fill-rule="evenodd" clip-rule="evenodd" fill="#666666" d="M275.795-19.142c0,0.502,0.014,1.004-0.01,1.504
	c-0.007,0.104-0.152,0.201-0.234,0.301c-0.062-0.096-0.18-0.192-0.182-0.289c-0.014-0.98-0.016-1.962,0-2.943
	c0.002-0.112,0.132-0.222,0.203-0.333c0.075,0.107,0.209,0.211,0.213,0.322C275.81-20.101,275.796-19.621,275.795-19.142z"/>
<path fill-rule="evenodd" clip-rule="evenodd" fill="#666666" d="M272.26-17.295c-0.062-0.131-0.179-0.262-0.181-0.395
	c-0.016-0.964-0.016-1.929,0.002-2.893c0.002-0.108,0.142-0.213,0.218-0.319c0.068,0.092,0.195,0.183,0.197,0.275
	c0.013,1.086,0.009,2.172,0.009,3.259C272.423-17.343,272.341-17.319,272.26-17.295z"/>
<path fill="#666666" d="M339.461-25.661c0.158-0.607,0.246-1.245,0.246-1.901c0-4.129-3.355-7.478-7.486-7.478
	c-4.779,0.007-5.417,3.643-5.417,3.643s-2.009-2.48-5.549-2.052c-3.187,0.635-5.271,3.503-5.271,6.428
	c0,0.503,0.073,0.983,0.201,1.453c-2.387,0.871-4.09,3.168-4.09,5.859c0,3.446,2.794,6.244,6.243,6.244h19.24
	c3.454,0,6.247-2.798,6.247-6.244C343.826-22.504,341.99-24.866,339.461-25.661z M336.435-14.714h-8.355
	c0.625-0.63,4.924-5.07,4.924-5.07s0.621-0.616-0.202-0.616c-0.822,0-2.132,0-2.132,0s0-0.357,0-0.902c0-1.683,0-4.963,0-6.217
	c0,0,0.008-0.294-0.37-0.294c-0.382,0-4.708,0-5.239,0c-0.533,0-0.439,0.351-0.439,0.351c0,1.291,0,4.46,0,6.205
	c0,0.607,0,1.004,0,1.004s-1.634,0-2.31,0s-0.055,0.588-0.055,0.588l5.089,4.951h-7.622c-3.002,0-5.425-2.362-5.425-5.275
	c0-2.272,1.477-4.213,3.553-4.949c-0.111-0.397-0.175-0.803-0.175-1.229c0-2.471,1.81-4.893,4.578-5.43
	c3.076-0.36,4.863,2.466,4.863,2.466s0.512-3.803,4.665-3.809c3.588,0,6.195,2.883,6.195,6.371c0,0.554-0.077,1.092-0.213,1.607
	c2.197,0.67,4.101,2.61,4.101,4.973C341.865-17.076,339.438-14.714,336.435-14.714z"/>
<path fill="#666666" d="M419.588-37.555V8h8.091V-2.942h3.577V8h1.491V-2.942h3.577V8h8.004v-45.555H419.588z M426.018,2.64h-3.576
	v-5.582h3.576V2.64z M426.018-4.794h-3.576v-5.582h3.576V-4.794z M426.018-12.574h-3.576v-5.582h3.576V-12.574z M426.018-20.858
	h-3.576v-5.581h3.576V-20.858z M426.15-28.379h-3.576v-5.581h3.576V-28.379z M431.256-4.794h-3.577v-5.582h3.577V-4.794z
	 M431.256-12.574h-3.577v-5.582h3.577V-12.574z M431.256-20.858h-3.576v-5.581h3.576V-20.858z M431.389-28.379h-3.576v-5.581h3.576
	V-28.379z M436.324-4.794h-3.577v-5.582h3.577V-4.794z M436.324-12.574h-3.577v-5.582h3.577V-12.574z M436.324-20.858h-3.577v-5.581
	h3.577V-20.858z M436.457-28.379h-3.576v-5.581h3.576V-28.379z M441.475,2.64h-3.575v-5.582h3.575V2.64z M441.475-4.794h-3.575
	v-5.582h3.575V-4.794z M441.475-12.574h-3.575v-5.582h3.575V-12.574z M441.476-20.858h-3.576v-5.581h3.576V-20.858z M441.608-28.379
	h-3.576v-5.581h3.576V-28.379z"/>
<g>
	<path fill="#666666" d="M377.227-20.011v0.101c0.421,1.435,1.144,2.534,2.167,3.294c1.024,0.761,2.287,1.142,3.79,1.142
		c1.713,0,3.421-0.531,5.124-1.594v3.273c-1.761,0.918-3.799,1.378-6.115,1.378c-0.87,0-1.693-0.072-2.469-0.215
		c-0.774-0.144-1.494-0.359-2.16-0.646c-0.664-0.287-1.271-0.644-1.822-1.069c-0.55-0.426-1.044-0.917-1.479-1.471
		c-0.436-0.555-0.854-1.275-1.256-2.161c-0.402-0.885-0.603-1.528-0.603-1.93v-0.101h-2.067l0.56-2.669h1.148
		c-0.02-0.172-0.028-0.426-0.028-0.761l0.028-0.948v-0.086h-1.708l0.56-2.67h1.536v-0.086c0.632-2.555,1.764-4.445,3.395-5.669
		c1.632-1.225,3.754-1.837,6.365-1.837c2.144,0,4.11,0.278,5.9,0.833v3.459c-2.134-0.919-3.967-1.378-5.498-1.378
		c-2.842,0-4.65,1.559-5.426,4.679h8.698l-0.53,2.67h-8.584v0.086c-0.019,0.182-0.029,0.459-0.029,0.833l0.029,0.79v0.086h8.254
		l-0.56,2.669H377.227z"/>
</g>
<g>
	<path fill="#494949" d="M58.842-71.925c-0.5,0.032-0.721,0.032-1.094,0.032c-0.314,0-0.721,0-1.176-0.032
		c-0.172,0.626-0.467,1.518-0.953,2.847c-0.406,1.126-0.656,2.049-0.783,2.957h-0.045c-0.203-1.143-0.361-1.611-0.861-2.957
		c-0.439-1.126-0.799-2.065-1.064-2.847c-0.516,0.032-0.672,0.032-1.141,0.032c-0.422,0-0.924,0-1.156-0.032
		c0.092,0.516,0.248,0.984,1.859,4.458c0.812,1.753,1.127,2.55,1.408,3.113c-0.268,0.423-0.422,0.75-0.781,1.58
		c-0.312,0.72-0.549,1.235-0.908,1.907c0.547-0.03,0.781-0.03,1.328-0.03c0.395,0,0.83,0.015,1.08,0.03
		c0.377-1.078,0.736-1.986,1.738-4.535C57.887-69.47,58.67-71.253,58.842-71.925 M50.002-69.876
		c-0.029-0.375-0.045-0.579-0.045-0.923c0-0.328,0-0.656,0.045-1.079c-0.436,0.062-1.891,0-2.314,0.142l-0.045-0.031
		c0.139-0.626,0.078-1.236,0.154-1.878c-0.578,0.125-1.295,0.171-1.893,0.188c0.031,0.469,0.031,1.394,0.143,1.69l-0.033,0.015
		c-0.373-0.11-1.281-0.077-1.768-0.125c0.033,0.297,0.047,0.625,0.047,1.033c0,0.421-0.014,0.578-0.047,0.969
		c0.395-0.046,1.189-0.031,1.689-0.203l0.047,0.032c-0.139,0.906-0.248,2.69-0.248,3.582c0,1.877,0.703,2.737,2.455,2.737
		c0.625,0,1.268-0.079,1.783-0.22c-0.033-0.328-0.078-0.688-0.078-0.985c0-0.312,0-0.578,0.014-0.812
		c-0.266,0.045-0.561,0.062-0.891,0.062c-1.143,0-1.281-0.188-1.281-1.455c0-0.876-0.094-2.377-0.188-2.894l0.045-0.062
		C48.189-69.907,49.363-69.954,50.002-69.876 M41.383-68.438c-0.5-0.062-1.125-0.093-1.703-0.093c-0.643,0-1.283,0.031-1.879,0.109
		c0-1.314,0.643-1.924,1.895-1.924C40.945-70.345,41.383-69.829,41.383-68.438 M43.324-67.17v-0.641c0-3.05-1.299-4.411-3.598-4.411
		c-2.395,0-3.863,1.767-3.863,4.301c0,2.676,1.609,4.239,4.191,4.239c1.25,0,2.205-0.282,2.754-0.72
		c-0.109-0.483-0.156-1.36-0.156-1.611c-0.609,0.346-1.551,0.471-2.533,0.471c-1.346,0-2.143-0.564-2.27-1.722
		c0.25,0.062,0.906,0.094,1.484,0.094H43.324z M34.094-71.925c-0.389,0.016-0.719,0.032-1.127,0.032
		c-0.469,0-0.67-0.017-1.094-0.032c0.033,1.267,0.078,2.784,0.078,4.192c0,1.141-0.031,2.534-0.031,3.864
		c0.408-0.016,0.643-0.031,1.047-0.031c0.408,0,0.674,0.016,1.082,0.031C34.031-65.215,34-66.592,34-67.732
		C34-69.141,34.049-70.548,34.094-71.925 M34.252-73.504c-0.031-0.423-0.031-0.595-0.031-0.986c0-0.391,0.016-0.579,0.031-0.954
		c-0.391,0.017-0.768,0.031-1.299,0.031c-0.516,0-0.877-0.015-1.281-0.031c0.031,0.312,0.031,0.563,0.031,0.954
		c0,0.392,0,0.578-0.018,0.986c0.438-0.017,0.721-0.032,1.281-0.032C33.531-73.536,33.875-73.521,34.252-73.504 M30.324-71.284
		c-0.533-0.641-1.299-0.891-2.346-0.891c-2.582,0-4.178,1.799-4.178,4.191c0,2.456,1.596,4.302,4.131,4.302
		c0.904,0,1.719-0.297,2.268-0.828c-0.109-0.547-0.172-1.362-0.172-1.816c-0.562,0.471-1.174,0.659-1.986,0.659
		c-1.441,0-2.271-0.908-2.271-2.285c0-1.346,0.816-2.235,2.271-2.235c0.938,0,1.453,0.172,2.031,0.734
		C30.121-70.204,30.199-70.876,30.324-71.284 M20.516-67.967c0,1.392-0.688,2.471-2.064,2.471s-2.066-1.079-2.066-2.471
		c0-1.472,0.707-2.331,2.08-2.331C19.842-70.298,20.516-69.438,20.516-67.967 M22.455-67.967c0-2.597-1.643-4.255-4.004-4.255
		c-2.363,0-4.004,1.658-4.004,4.223c0,2.612,1.58,4.412,4.004,4.412S22.455-65.387,22.455-67.967 M13.055-66.326
		c0-1.281-0.641-1.907-2.127-2.173c-1.486-0.28-1.598-0.391-1.598-0.893c0-0.562,0.439-0.844,1.551-0.844
		c0.797,0,1.438,0.094,1.938,0.391c0.031-0.656,0.096-1.329,0.221-1.705c-0.576-0.469-1.406-0.625-2.266-0.625
		c-2.191,0-3.396,1.048-3.396,2.674c0,1.22,0.578,1.941,2.189,2.223c1.406,0.249,1.564,0.374,1.564,0.875
		c0,0.596-0.312,0.845-1.344,0.845c-0.738,0-1.408-0.142-1.988-0.39c-0.018,0.547-0.061,1.188-0.156,1.704
		c0.547,0.39,1.406,0.562,2.205,0.562C11.85-63.682,13.055-64.636,13.055-66.326 M0.416-69.641C0.369-69.25,0.32-68.624,0.32-68.155
		c0,0.58,0.033,1.049,0.049,1.22c-0.281,0.439-0.797,0.705-1.658,0.705c-1.252,0-1.926-0.735-1.926-1.987
		c0-1.221,0.533-1.924,1.846-1.924C-0.477-70.142,0.057-69.97,0.416-69.641 M2.404-71.925c-0.377,0.016-0.566,0.032-0.799,0.032
		c-0.221,0-0.486-0.017-0.783-0.032c-0.078,0.265-0.141,0.531-0.203,0.955L0.572-70.94c-0.391-0.781-1.018-1.188-2.158-1.188
		c-2.207,0-3.615,1.487-3.615,3.911c0,2.253,1.502,3.848,3.645,3.848c1.018,0,1.676-0.641,1.926-1.267l0.029,0.016
		c-0.014,0.142-0.045,0.392-0.045,0.641v0.376c0,1.394-0.625,1.972-2.098,1.972c-0.625,0-1.203-0.062-1.719-0.22
		c-0.016,0.579-0.047,1.126-0.141,1.752c0.594,0.297,1.281,0.407,1.955,0.407c2.33,0,3.975-1.205,3.975-4.177v-3.302
		C2.326-69.547,2.355-70.658,2.404-71.925 M-8.797-65.979c-0.312,0.438-0.736,0.641-1.486,0.641c-0.861,0-1.223-0.282-1.223-0.923
		c0-0.688,0.439-0.923,1.457-0.987c0.516-0.029,0.939-0.029,1.252-0.093V-65.979z M-6.654-63.868
		c-0.127-0.72-0.188-1.439-0.188-2.111v-2.957c0-2.27-1.064-3.254-3.428-3.254c-1.281,0-2.283,0.358-2.861,1.174
		c0.127,0.423,0.174,1.001,0.203,1.625l0.031,0.031c0.424-0.547,1.252-0.891,2.488-0.891c1.221,0,1.611,0.219,1.611,1.204v0.406
		h-0.391c-2.816,0-4.209,0.688-4.209,2.582c0,1.549,1.018,2.44,2.66,2.44c1.252,0,1.828-0.532,2.158-1.534h0.061
		c0.018,0.423,0.094,0.892,0.174,1.284c0.377-0.016,0.672-0.031,0.877-0.031C-7.201-63.899-6.906-63.884-6.654-63.868
		 M-17.025-65.979c-0.312,0.438-0.736,0.641-1.484,0.641c-0.861,0-1.221-0.282-1.221-0.923c0-0.688,0.438-0.923,1.455-0.987
		c0.514-0.029,0.938-0.029,1.25-0.093V-65.979z M-14.883-63.868c-0.125-0.72-0.188-1.439-0.188-2.111v-2.957
		c0-2.27-1.064-3.254-3.424-3.254c-1.285,0-2.285,0.358-2.863,1.174c0.125,0.423,0.172,1.001,0.203,1.625l0.031,0.031
		c0.422-0.547,1.252-0.891,2.486-0.891c1.221,0,1.611,0.219,1.611,1.204v0.406h-0.391c-2.814,0-4.209,0.688-4.209,2.582
		c0,1.549,1.018,2.44,2.662,2.44c1.25,0,1.828-0.532,2.158-1.534h0.061c0.016,0.423,0.096,0.892,0.174,1.284
		c0.375-0.016,0.67-0.031,0.875-0.031C-15.428-63.899-15.133-63.884-14.883-63.868 M-22.375-71.925
		c-0.453,0.047-0.609,0.032-1,0.032c-0.422,0-0.564,0-1.08-0.032c-0.141,0.735-0.469,1.769-0.703,2.706
		c-0.268,1.063-0.518,2.237-0.658,3.191h-0.047c-0.156-1.002-0.5-2.159-0.906-3.442c-0.393-1.188-0.674-2.002-0.861-2.455
		c-0.172,0.016-0.531,0.032-0.828,0.032s-0.658-0.017-0.83-0.032c-0.201,0.47-0.453,1.251-0.844,2.455
		c-0.391,1.269-0.752,2.504-0.908,3.442h-0.031c-0.141-0.923-0.375-1.972-0.672-3.191c-0.234-0.971-0.547-1.955-0.703-2.706
		c-0.424,0.032-0.674,0.032-1.113,0.032c-0.406,0-0.529,0-1.016-0.032c0,0.328,0.33,1.486,1.316,4.536
		c0.498,1.533,0.842,2.613,1.078,3.521c0.312-0.016,0.611-0.031,0.938-0.031c0.281,0,0.734,0.016,0.891,0.031
		c0.127-0.282,0.785-1.815,1.205-3.161c0.299-0.954,0.562-1.846,0.641-2.752h0.049c0.094,0.906,0.342,1.798,0.656,2.721
		c0.453,1.347,1.096,2.927,1.205,3.192c0.156-0.016,0.609-0.031,0.955-0.031c0.279,0,0.875,0.031,0.875,0.031
		c0.188-0.846,0.518-1.846,1.062-3.505C-22.75-70.407-22.375-71.644-22.375-71.925"/>
	<path fill="#494949" d="M-62.022-96.718C-74.161-96.718-84-86.878-84-74.741c0,12.138,9.839,21.978,21.978,21.978
		c12.136,0,21.976-9.84,21.976-21.978C-40.047-86.878-49.887-96.718-62.022-96.718z M-57.469-64.376l-0.045-6.95
		c-0.049-2.584-1.992-4.746-4.531-4.746s-4.486,2.162-4.486,4.746v6.95h-8.242l1.403-13.808l4.03-8.45l1.723,6.951l5.572-9.396
		l5.66,9.396l1.637-6.951l4.072,8.45l1.404,13.808H-57.469z"/>
</g>
<g>
	<g>
		<path fill="#666666" d="M466.918-38.086v2.955c0.226-0.049,4.789-1.001,8.376,1.528V-39L466.918-38.086z"/>
		<polygon fill="#666666" points="466.918,-17.356 475.294,-18.271 475.294,-23.639 466.918,-23.071 		"/>
		<path fill="#666666" d="M466.918-34.24v10.051l8.376-0.569v-7.677C471.933-35.241,466.973-34.252,466.918-34.24z"/>
		<path fill="#666666" d="M476.515-31.183v6.564l0.047-0.229l8.33,1.73v-3.625c-0.319,0.017-0.626,0.027-0.91,0.027
			C480.455-26.716,479.289-27.945,476.515-31.183z"/>
		<polygon fill="#666666" points="476.515,-18.271 484.892,-15.529 484.892,-21.979 476.515,-23.719 		"/>
		<path fill="#666666" d="M476.923-32.113c3.161,3.698,4.008,4.682,7.969,4.466v-8.612L476.515-39v6.455
			c0.116,0.121,0.236,0.232,0.347,0.36L476.923-32.113z"/>
		<polygon fill="#666666" points="485.938,-15.529 494.318,-17.356 494.318,-23.614 485.938,-21.962 		"/>
		<path fill="#666666" d="M494.318-24.753v-4.318l-1.211,0.33c0.009,0.088,0.027,0.177,0.027,0.27c0,1.415-1.146,2.564-2.563,2.564
			c-1.038,0-1.93-0.623-2.329-1.509l-2.184,0.593c-0.042,0.004-0.078,0.006-0.12,0.009v3.716L494.318-24.753z"/>
		<path fill="#666666" d="M492.853-29.617l1.344-0.368l0.122-0.016v-8.085l-8.38,1.828v8.527l2.088-0.569
			c-0.005-0.058-0.018-0.109-0.018-0.17c0-1.416,1.147-2.561,2.562-2.561C491.572-31.032,492.429-30.454,492.853-29.617z"/>
		<path fill="#666666" d="M475.294-33.604v1.168c0.307,0.254,0.6,0.526,0.873,0.845l0.061,0.074c0.1,0.116,0.193,0.221,0.287,0.334
			v-1.362C476.127-32.95,475.72-33.304,475.294-33.604z"/>
		<path fill="#666666" d="M484.892-27.647v0.904c0.329-0.016,0.68-0.041,1.047-0.072v-0.917l-0.039,0.011
			C485.539-27.688,485.209-27.666,484.892-27.647z"/>
		<circle fill="#666666" cx="490.61" cy="-28.475" r="1.24"/>
	</g>
</g>
<g>
	<path fill="#666666" d="M466.977-10.07c0-0.773-0.029-1.379-0.059-1.983h1.166l0.059,1.195h0.047
		c0.407-0.696,1.09-1.348,2.316-1.348c0.985,0,1.742,0.605,2.06,1.468h0.029c0.23-0.424,0.53-0.726,0.833-0.954
		c0.44-0.333,0.911-0.515,1.607-0.515c0.982,0,2.424,0.636,2.424,3.18v4.301h-1.305v-4.134c0-1.423-0.528-2.256-1.59-2.256
		c-0.772,0-1.348,0.561-1.589,1.197c-0.062,0.196-0.107,0.422-0.107,0.665v4.528h-1.301v-4.392c0-1.166-0.518-1.999-1.529-1.999
		c-0.819,0-1.441,0.667-1.654,1.333c-0.073,0.181-0.104,0.424-0.104,0.65v4.408h-1.303V-10.07z"/>
	<path fill="#666666" d="M484.764-6.482c0,0.636,0.028,1.258,0.104,1.757h-1.195l-0.107-0.923h-0.045
		c-0.407,0.575-1.197,1.09-2.24,1.09c-1.484,0-2.241-1.045-2.241-2.105c0-1.772,1.576-2.741,4.405-2.727v-0.15
		c0-0.591-0.167-1.697-1.665-1.682c-0.696,0-1.408,0.197-1.923,0.545l-0.302-0.893c0.604-0.378,1.499-0.636,2.422-0.636
		c2.24,0,2.787,1.529,2.787,2.983V-6.482z M483.477-8.465c-1.453-0.03-3.105,0.227-3.105,1.649c0,0.88,0.575,1.273,1.242,1.273
		c0.97,0,1.59-0.606,1.803-1.227c0.044-0.151,0.061-0.303,0.061-0.424V-8.465z"/>
	<path fill="#666666" d="M486.914-9.662c0-0.939-0.028-1.696-0.058-2.392h1.182l0.074,1.256h0.031
		c0.53-0.894,1.408-1.408,2.604-1.408c1.786,0,3.12,1.5,3.12,3.71c0,2.635-1.621,3.938-3.347,3.938
		c-0.969,0-1.817-0.424-2.256-1.151h-0.032v3.982h-1.318V-9.662z M488.232-7.708c0,0.196,0.017,0.378,0.061,0.545
		c0.242,0.923,1.046,1.559,2.002,1.559c1.407,0,2.223-1.152,2.223-2.832c0-1.454-0.771-2.71-2.179-2.71
		c-0.908,0-1.772,0.637-2.017,1.635c-0.042,0.167-0.09,0.364-0.09,0.53V-7.708z"/>
</g>
<path fill="#727272" d="M-70.964,57.79V46.213h-6.621v11.648l-0.172,0.004c-2.59,1.285-4.374,3.949-4.374,7.036
	c0,4.339,3.517,7.856,7.856,7.856c4.339,0,7.857-3.518,7.857-7.856C-66.417,61.748-68.283,59.041-70.964,57.79z"/>
<path fill="none" stroke="#666666" stroke-miterlimit="10" d="M-71.136,57.7V32.965c0-1.828-1.482-3.311-3.311-3.311
	s-3.311,1.482-3.311,3.311v24.9c-2.59,1.285-4.374,3.949-4.374,7.036c0,4.339,3.517,7.856,7.856,7.856
	c4.339,0,7.857-3.518,7.857-7.856C-66.417,61.679-68.36,58.912-71.136,57.7z"/>
<g>
	<polygon fill="#666666" points="517.646,-25.113 509.898,-29.518 506.857,-27.789 517.646,-21.653 528.434,-27.789 
		525.393,-29.518 	"/>
	<polygon fill="#666666" points="517.646,-20.053 509.898,-24.458 506.857,-22.729 517.646,-16.596 528.434,-22.729 
		525.393,-24.458 	"/>
	<polygon fill="#666666" points="528.434,-32.733 517.646,-38.868 506.857,-32.733 517.646,-26.6 	"/>
</g>
<g>
	<rect x="545.042" y="-23.231" fill-rule="evenodd" clip-rule="evenodd" fill="#666666" width="3.62" height="6.014"/>
	<rect x="545.042" y="-26.456" fill-rule="evenodd" clip-rule="evenodd" fill="#666666" width="3.62" height="2.149"/>
	<rect x="545.042" y="-29.51" fill-rule="evenodd" clip-rule="evenodd" fill="#666666" width="3.62" height="2.149"/>
	<rect x="545.042" y="-32.62" fill-rule="evenodd" clip-rule="evenodd" fill="#666666" width="3.62" height="2.149"/>
	<rect x="561.247" y="-23.231" fill-rule="evenodd" clip-rule="evenodd" fill="#666666" width="3.619" height="6.014"/>
	<rect x="561.247" y="-26.456" fill-rule="evenodd" clip-rule="evenodd" fill="#666666" width="3.619" height="2.149"/>
	<rect x="561.247" y="-29.51" fill-rule="evenodd" clip-rule="evenodd" fill="#666666" width="3.619" height="2.149"/>
	<rect x="561.247" y="-32.62" fill-rule="evenodd" clip-rule="evenodd" fill="#666666" width="3.619" height="2.149"/>
	<rect x="550.529" y="-29.341" fill-rule="evenodd" clip-rule="evenodd" fill="#666666" width="3.619" height="12.123"/>
	<rect x="550.529" y="-32.563" fill-rule="evenodd" clip-rule="evenodd" fill="#666666" width="3.619" height="2.148"/>
	<rect x="550.529" y="-35.619" fill-rule="evenodd" clip-rule="evenodd" fill="#666666" width="3.619" height="2.15"/>
	<rect x="550.529" y="-38.729" fill-rule="evenodd" clip-rule="evenodd" fill="#666666" width="3.619" height="2.149"/>
	<rect x="555.746" y="-24.588" fill-rule="evenodd" clip-rule="evenodd" fill="#666666" width="3.62" height="7.371"/>
	<rect x="555.746" y="-27.813" fill-rule="evenodd" clip-rule="evenodd" fill="#666666" width="3.62" height="2.149"/>
	<rect x="555.746" y="-30.868" fill-rule="evenodd" clip-rule="evenodd" fill="#666666" width="3.62" height="2.149"/>
	<rect x="555.746" y="-33.978" fill-rule="evenodd" clip-rule="evenodd" fill="#666666" width="3.62" height="2.149"/>
</g>
<path fill-rule="evenodd" clip-rule="evenodd" fill="#666666" d="M585.338-17.808c0,0.606,0,1.111,0,1.737c0.353,0,0.687,0,1.021,0
	c4.945,0,9.89-0.001,14.835,0c1.179,0,1.272,0.093,1.273,1.288c0.004,2.443-0.013,4.888,0.01,7.331
	c0.009,0.76-0.273,1.096-1.057,1.094c-6.354-0.014-12.708-0.014-19.061-0.004c-0.713,0.001-1.079-0.241-1.04-1.003
	c0.033-0.66,0.039-1.324-0.002-1.983c-0.052-0.846,0.405-1.003,1.124-1c5.003,0.014,10.005,0.006,15.007,0.006
	c0.31,0,0.617,0,0.981,0c0-0.596,0-1.1,0-1.747c-0.335,0-0.665,0-0.995,0c-4.945,0-9.89,0-14.835,0
	c-1.186,0-1.272-0.086-1.272-1.277c-0.003-2.415-0.003-4.83-0.001-7.244c0.001-1.043,0.12-1.168,1.118-1.168
	c6.267-0.003,12.534-0.004,18.801-0.003c1.054,0,1.216,0.159,1.224,1.176c0.004,0.546,0.005,1.092,0.002,1.639
	c-0.005,0.972-0.18,1.154-1.158,1.155c-4.976,0.003-9.948,0.002-14.922,0.003C586.055-17.808,585.72-17.808,585.338-17.808z"/>
<path fill-rule="evenodd" clip-rule="evenodd" fill="#666666" d="M585.324-29.25c0,0.621,0,1.133,0,1.735
	c1.546,0,3.063,0.033,4.579-0.013c0.836-0.026,1.147,0.304,1.102,1.115c-0.039,0.687,0.072,1.392-0.045,2.061
	c-0.053,0.307-0.489,0.773-0.761,0.779c-2.67,0.061-5.343,0.041-8.012,0.042c-0.612,0.001-0.868-0.323-0.867-0.921
	c0.007-2.642,0.003-5.285,0.001-7.928c0-0.602,0.296-0.89,0.902-0.888c2.642,0.005,5.285,0.005,7.927,0.003
	c0.576,0,0.836,0.303,0.842,0.851c0.008,0.718-0.012,1.437,0.011,2.154c0.02,0.691-0.275,0.99-0.977,0.975
	c-1.264-0.025-2.527-0.008-3.793-0.003C585.953-29.287,585.671-29.265,585.324-29.25z"/>
<path fill-rule="evenodd" clip-rule="evenodd" fill="#666666" d="M602.471-32.113c-0.002-0.956-0.201-1.15-1.165-1.153
	c-1.489-0.003-2.978,0-4.584,0c0-1.693-0.013-3.24,0.006-4.787c0.008-0.653-0.269-0.956-0.92-0.946
	c-0.689,0.011-1.378,0.013-2.067,0c-0.673-0.013-0.998,0.275-0.997,0.972c0.009,4.48,0.01,8.96-0.002,13.44
	c-0.003,0.775,0.331,1.067,1.096,1.061c2.527-0.023,5.055-0.021,7.582,0.003c0.785,0.007,1.069-0.348,1.063-1.095
	C602.466-27.116,602.477-29.614,602.471-32.113z M597.702-26.439c-2.329-0.014-2.086,0.169-2.09-2.077
	c-0.003-1.874,0-1.874,1.867-1.871c0.029,0,0.058,0,0.087,0c2.221-0.013,2.067-0.139,2.055,2.031
	C599.637-26.406,599.779-26.427,597.702-26.439z"/>
<path fill-rule="evenodd" clip-rule="evenodd" fill="#666666" d="M211.769-28.93c0.07-1.022,0.017-1.872,0.2-2.667
	c0.865-3.738,5.187-5.686,8.393-3.553c1.473,0.978,2.561,0.739,3.879,0.169c0.249-0.108,0.5-0.218,0.995-0.139
	c-0.607,0.842-1.213,1.684-1.93,2.68c0.847-0.203,1.604-0.382,2.526-0.603c-0.249,0.375-0.347,0.678-0.555,0.809
	c-1.902,1.211-1.982,3.147-2.269,5.119c-1.661,11.387-14.049,17.425-24.07,11.79c-0.078-0.043-0.14-0.116-0.287-0.239
	c1.405-0.2,2.764-0.241,4.023-0.616c1.274-0.377,2.456-1.081,3.641-1.817c-2.334-0.583-4.087-1.663-4.966-4.009
	c0.688-0.057,1.332-0.105,1.975-0.157c-2.364-1.178-3.925-2.785-4.041-5.622c0.782,0.187,1.426,0.341,2.493,0.598
	c-2.497-2.338-3.048-4.741-1.79-7.716C203.192-31.325,207.023-29.281,211.769-28.93z"/>
<circle fill-rule="evenodd" clip-rule="evenodd" fill="none" stroke="#666666" stroke-width="2" stroke-miterlimit="10" cx="16.063" cy="16" r="12.452"/>
<circle fill-rule="evenodd" clip-rule="evenodd" fill="#666666" cx="11.035" cy="13.59" r="1.902"/>
<circle fill-rule="evenodd" clip-rule="evenodd" fill="#666666" cx="20.712" cy="13.59" r="1.902"/>
<rect x="11.134" y="20.182" fill-rule="evenodd" clip-rule="evenodd" fill="none" stroke="#666666" stroke-miterlimit="10" width="9.639" height="1.472"/>
</svg>
