<?xml version="1.0" encoding="utf-8"?>
<!-- Generator: Adobe Illustrator 16.0.0, SVG Export Plug-In . SVG Version: 6.00 Build 0)  -->
<!DOCTYPE svg PUBLIC "-//W3C//DTD SVG 1.1//EN" "http://www.w3.org/Graphics/SVG/1.1/DTD/svg11.dtd">
<svg version="1.1" id="basis" xmlns="http://www.w3.org/2000/svg" xmlns:xlink="http://www.w3.org/1999/xlink" x="0px" y="0px"
	 width="32px" height="32px" viewBox="0 0 32 32" enable-background="new 0 0 32 32" xml:space="preserve">
<g>
	<polygon fill="#666666" points="29.293,4.403 19.396,4.403 22.692,7.7 15.96,14.435 12.635,11.109 2.437,21.14 5.796,24.5 
		12.703,17.708 16.028,21.033 25.995,11.067 29.293,14.365 	"/>
	<polygon fill="#666666" points="8.474,24.098 5.796,26.73 5.796,27.598 8.474,27.598 	"/>
	<polygon fill="#666666" points="12.199,20.434 9.521,23.066 9.521,27.598 12.199,27.598 	"/>
	<polygon fill="#666666" points="15.845,23.147 13.168,20.471 13.168,27.598 15.845,27.598 	"/>
	<polygon fill="#666666" points="19.57,19.937 16.893,22.494 16.893,27.598 19.57,27.598 	"/>
	<polygon fill="#666666" points="23.047,16.443 20.37,19.075 20.37,27.598 23.047,27.598 	"/>
	<polygon fill="#666666" points="26.772,14.646 25.829,13.702 24.096,15.412 24.096,27.598 26.772,27.598 	"/>
</g>
</svg>
