<?xml version="1.0" encoding="utf-8"?>
<!-- Generator: Adobe Illustrator 16.0.0, SVG Export Plug-In . SVG Version: 6.00 Build 0)  -->
<!DOCTYPE svg PUBLIC "-//W3C//DTD SVG 1.1//EN" "http://www.w3.org/Graphics/SVG/1.1/DTD/svg11.dtd">
<svg version="1.1" id="basis" xmlns="http://www.w3.org/2000/svg" xmlns:xlink="http://www.w3.org/1999/xlink" x="0px" y="0px"
	 width="32px" height="32px" viewBox="0 0 32 32" enable-background="new 0 0 32 32" xml:space="preserve">
<path fill="#666666" d="M27.104,14.067l-3.026-7.775c-0.137-0.47-0.582-1.051-1.303-1.051h-6.774H9.226
	c-0.721,0-1.166,0.582-1.304,1.051l-3.026,7.775c-0.219,0.584-2.422,1.136-2.52,2.605v8.928c0,0.392,0.318,0.708,0.708,0.708h2.403
	c0.391,0,0.708-0.317,0.708-0.708v-1.982h19.61v1.982c0,0.392,0.316,0.708,0.708,0.708h2.402c0.392,0,0.708-0.317,0.708-0.708
	v-8.928C29.527,15.204,27.322,14.652,27.104,14.067z M8.412,18.556c0,0.391-0.317,0.709-0.708,0.709H5.631
	c-0.392,0-0.708-0.318-0.708-0.709v-1.175c0-0.391,0.316-0.708,0.708-0.708h2.073c0.391,0,0.708,0.317,0.708,0.708V18.556z
	 M6.311,14.012l2.796-6.81C9.312,6.896,9.608,6.59,10.229,6.59h5.771h5.771c0.619,0,0.916,0.307,1.122,0.612l2.796,6.81h-9.689
	H6.311z M27.065,18.556c0,0.391-0.315,0.709-0.708,0.709h-2.072c-0.392,0-0.709-0.318-0.709-0.709v-1.175
	c0-0.391,0.317-0.708,0.709-0.708h2.072c0.393,0,0.708,0.317,0.708,0.708V18.556z"/>
</svg>
