<?xml version="1.0" encoding="utf-8"?>
<!-- Generator: Adobe Illustrator 16.0.0, SVG Export Plug-In . SVG Version: 6.00 Build 0)  -->
<!DOCTYPE svg PUBLIC "-//W3C//DTD SVG 1.1//EN" "http://www.w3.org/Graphics/SVG/1.1/DTD/svg11.dtd">
<svg version="1.1" id="basis" xmlns="http://www.w3.org/2000/svg" xmlns:xlink="http://www.w3.org/1999/xlink" x="0px" y="0px"
	 width="32px" height="32px" viewBox="0 0 32 32" enable-background="new 0 0 32 32" xml:space="preserve">
<g>
	<path fill="#666666" d="M11.742,22.228c0,0,0.397-1.275,0.199-1.862l-2.318-7.002c0,0-0.14-0.878-1.069-0.563l-2.876,0.972
		c0,0-2.239,0.868-1.496,3.067l1.024,3.028c0,0,0.812,2.553,3.039,1.801c0,0,0.877-0.26,1.27,1.152l1.851,5.471
		c0,0,0.158,0.925,1.038,0.627c0,0,2.707-0.469,0.543-2.667C13.574,24.932,11.742,24.045,11.742,22.228z"/>
	<path fill="#666666" d="M23.695,14.159c0.64-0.686,0.903-1.687,0.581-2.639c-0.321-0.953-1.139-1.587-2.063-1.742l-2.16-6.386
		c-0.283-0.835-0.676,0.332-0.676,0.332c-1.589,6.327-8.634,8.247-8.634,8.247c-0.815,0.275-0.451,0.926-0.451,0.926l2.04,6.03
		c0.235,0.696,0.964,0.449,0.964,0.449c7.72-2.612,12.001,1.377,12.001,1.377s0.863,0.552,0.555-0.221L23.695,14.159z"/>
	
		<rect x="24.912" y="5.981" transform="matrix(0.8072 0.5902 -0.5902 0.8072 9.4729 -13.3354)" fill="#666666" width="0.481" height="3.709"/>
	
		<rect x="25.038" y="14.499" transform="matrix(-0.8755 -0.4832 0.4832 -0.8755 43.3155 40.6392)" fill="#666666" width="3.709" height="0.483"/>
	
		<rect x="25.039" y="10.609" transform="matrix(-0.9607 0.2776 -0.2776 -0.9607 55.7409 13.8081)" fill="#666666" width="3.708" height="0.482"/>
</g>
</svg>
