<?xml version="1.0" encoding="utf-8"?>
<!-- Generator: Adobe Illustrator 16.0.0, SVG Export Plug-In . SVG Version: 6.00 Build 0)  -->
<!DOCTYPE svg PUBLIC "-//W3C//DTD SVG 1.1//EN" "http://www.w3.org/Graphics/SVG/1.1/DTD/svg11.dtd">
<svg version="1.1" id="Layer_1" xmlns="http://www.w3.org/2000/svg" xmlns:xlink="http://www.w3.org/1999/xlink" x="0px" y="0px"
	 width="32px" height="32px" viewBox="0 0 32 32" enable-background="new 0 0 32 32" xml:space="preserve">
<g id="label_parking-building">
	<path fill="#666666" d="M17.777,13.765c-0.887-0.075-1.786-0.019-2.693-0.019c0,0.944,0,1.838,0,2.754
		c0.91,0,1.791,0.057,2.66-0.02c0.692-0.06,1.131-0.665,1.137-1.342C18.887,14.458,18.448,13.82,17.777,13.765z"/>
	<path fill="#666666" d="M16,0C7.164,0,0,7.164,0,16c0,8.837,7.164,16,16,16c8.837,0,16-7.163,16-16C32,7.164,24.837,0,16,0z
		 M18.535,18.403c-0.353,0.118-0.745,0.148-1.122,0.16c-0.758,0.023-1.518,0.007-2.353,0.007c0,1.235-0.018,2.377,0.009,3.519
		c0.011,0.456-0.151,0.579-0.591,0.579c-1.485,0.003-1.487,0.019-1.484-1.491c0.005-2.93,0.026-5.857,0.003-8.786
		c-0.004-0.592,0.186-0.751,0.756-0.733c1.262,0.04,2.527-0.015,3.79,0.021c1.736,0.048,3.09,1.275,3.346,2.974
		C21.134,16.274,20.154,17.861,18.535,18.403z M24.039,22.963c-1.564,0.01-1.564,0.025-1.563-1.521
		c0.006-3.09,0.005-6.183,0.024-9.274c0.002-0.388-0.083-0.606-0.47-0.773c-1.731-0.745-3.442-1.537-5.176-2.282
		c-0.222-0.096-0.556-0.105-0.775-0.011c-1.73,0.749-3.441,1.542-5.171,2.295c-0.354,0.156-0.452,0.354-0.452,0.724
		c0.012,3.373-0.006,6.744,0.012,10.117c0.002,0.531-0.114,0.737-0.694,0.725c-1.473-0.034-1.474-0.005-1.473-1.459
		c0.006-3.514,0.021-7.026,0.006-10.54c-0.003-0.486,0.128-0.748,0.594-0.95c2.375-1.028,4.729-2.104,7.103-3.136
		c0.239-0.104,0.595-0.125,0.827-0.024c2.397,1.031,4.772,2.105,7.167,3.143c0.44,0.191,0.629,0.416,0.617,0.927
		c-0.036,1.887-0.014,3.774-0.014,5.662c0.004,0,0.007,0,0.01,0c0,1.927-0.013,3.854,0.008,5.781
		C24.623,22.807,24.492,22.961,24.039,22.963z"/>
</g>
</svg>
