<?xml version="1.0" encoding="utf-8"?>
<!-- Generator: Adobe Illustrator 16.0.0, SVG Export Plug-In . SVG Version: 6.00 Build 0)  -->
<!DOCTYPE svg PUBLIC "-//W3C//DTD SVG 1.1//EN" "http://www.w3.org/Graphics/SVG/1.1/DTD/svg11.dtd">
<svg version="1.1" id="Layer_1" xmlns="http://www.w3.org/2000/svg" xmlns:xlink="http://www.w3.org/1999/xlink" x="0px" y="0px"
	 width="32px" height="32px" viewBox="0 0 32 32" enable-background="new 0 0 32 32" xml:space="preserve">
<path fill-rule="evenodd" clip-rule="evenodd" fill="#666666" d="M31.526,16.051c0,4.408,0.002,8.816,0,13.225
	c0,1.609-0.637,2.252-2.242,2.252c-8.844,0-17.687-0.002-26.531-0.006c-1.696-0.002-2.282-0.594-2.281-2.277
	C0.48,20.4,0.49,11.557,0.498,2.713C0.5,1.082,1.098,0.479,2.74,0.478c8.817-0.004,17.634-0.005,26.45-0.005
	c1.688,0,2.301,0.605,2.301,2.271c0.004,4.436,0.002,8.871,0.002,13.307C31.503,16.051,31.517,16.051,31.526,16.051z M16.028,30.338
	c0-0.002,0-0.008,0-0.01c4.377,0,8.758,0,13.139,0c1.125,0,1.176-0.055,1.178-1.191c0.01-8.76,0.021-17.52,0.033-26.279
	c0-1.178-0.064-1.247-1.223-1.247C20.37,1.607,11.583,1.604,2.797,1.604c-1.116,0-1.231,0.117-1.229,1.261
	c0.015,8.759,0.032,17.518,0.05,26.28c0.002,1.111,0.087,1.193,1.189,1.193C7.214,30.34,11.62,30.338,16.028,30.338z"/>
<path fill-rule="evenodd" clip-rule="evenodd" fill="#FFFFFF" d="M16.028,30.338c-4.408,0-8.814,0.002-13.221,0
	c-1.103,0-1.187-0.082-1.189-1.193C1.6,20.383,1.583,11.624,1.568,2.865C1.565,1.72,1.681,1.604,2.797,1.604
	c8.787,0.001,17.573,0.003,26.358,0.007c1.158,0,1.223,0.069,1.223,1.247c-0.012,8.759-0.023,17.519-0.033,26.279
	c-0.002,1.137-0.053,1.191-1.178,1.191c-4.381,0-8.762,0-13.139,0C16.028,30.33,16.028,30.336,16.028,30.338z M26.894,18.318
	c-0.004,0-0.008,0-0.012,0c0-2.526-0.029-5.053,0.02-7.579c0.014-0.685-0.238-0.984-0.828-1.241
	c-3.205-1.388-6.387-2.827-9.594-4.208c-0.312-0.134-0.788-0.106-1.107,0.033c-3.177,1.382-6.33,2.82-9.509,4.198
	c-0.623,0.27-0.798,0.62-0.795,1.271c0.02,4.704,0,9.407-0.007,14.11c-0.003,1.947-0.001,1.908,1.971,1.953
	c0.776,0.018,0.934-0.258,0.93-0.969c-0.023-4.516,0-9.029-0.016-13.544c-0.001-0.497,0.129-0.762,0.604-0.969
	c2.315-1.007,4.606-2.071,6.923-3.073c0.293-0.126,0.739-0.114,1.037,0.014c2.319,0.998,4.61,2.059,6.929,3.055
	c0.518,0.222,0.631,0.515,0.629,1.035c-0.027,4.139-0.025,8.279-0.033,12.416c-0.002,2.07-0.002,2.049,2.094,2.035
	c0.605-0.002,0.781-0.209,0.775-0.797C26.878,23.479,26.894,20.898,26.894,18.318z M13.644,21.365c1.117,0,2.135,0.021,3.149-0.01
	c0.505-0.016,1.03-0.057,1.503-0.215c2.166-0.725,3.479-2.85,3.15-5.02c-0.342-2.275-2.154-3.917-4.479-3.982
	c-1.69-0.048-3.384,0.024-5.074-0.028c-0.762-0.024-1.017,0.188-1.011,0.981c0.03,3.92,0.002,7.84-0.005,11.762
	c-0.003,2.021-0.001,2,1.987,1.996c0.588,0,0.805-0.164,0.791-0.775C13.62,24.547,13.644,23.018,13.644,21.365z"/>
<path fill-rule="evenodd" clip-rule="evenodd" fill="#666666" d="M26.894,18.318c0,2.58-0.016,5.16,0.01,7.74
	c0.006,0.588-0.17,0.795-0.775,0.797c-2.096,0.014-2.096,0.035-2.094-2.035c0.008-4.137,0.006-8.277,0.033-12.416
	c0.002-0.52-0.111-0.812-0.629-1.035c-2.318-0.997-4.609-2.057-6.929-3.055c-0.297-0.128-0.744-0.141-1.037-0.014
	c-2.317,1.002-4.608,2.065-6.923,3.073c-0.475,0.208-0.605,0.473-0.604,0.969c0.016,4.515-0.008,9.029,0.016,13.544
	c0.003,0.711-0.154,0.986-0.93,0.969c-1.972-0.045-1.974-0.006-1.971-1.953c0.007-4.703,0.027-9.406,0.007-14.11
	C5.065,10.141,5.24,9.791,5.863,9.521c3.179-1.377,6.332-2.816,9.509-4.198c0.319-0.139,0.796-0.167,1.107-0.033
	c3.208,1.38,6.389,2.819,9.594,4.208c0.59,0.256,0.842,0.556,0.828,1.241c-0.049,2.526-0.02,5.053-0.02,7.579
	C26.886,18.318,26.89,18.318,26.894,18.318z"/>
<path fill-rule="evenodd" clip-rule="evenodd" fill="#666666" d="M13.644,21.365c0,1.652-0.024,3.182,0.012,4.709
	c0.015,0.611-0.202,0.775-0.791,0.775c-1.988,0.004-1.99,0.025-1.987-1.996c0.007-3.922,0.035-7.842,0.005-11.762
	c-0.006-0.793,0.249-1.006,1.011-0.981c1.69,0.053,3.384-0.02,5.074,0.028c2.324,0.065,4.137,1.707,4.479,3.982
	c0.328,2.17-0.984,4.295-3.15,5.02c-0.473,0.158-0.998,0.199-1.503,0.215C15.779,21.387,14.761,21.365,13.644,21.365z
	 M13.676,18.592c1.218,0,2.397,0.076,3.56-0.025c0.928-0.08,1.516-0.891,1.523-1.797c0.008-0.912-0.58-1.765-1.477-1.84
	c-1.188-0.1-2.391-0.025-3.606-0.025C13.676,16.169,13.676,17.365,13.676,18.592z"/>
</svg>
