<?xml version="1.0" encoding="utf-8"?>
<!-- Generator: Adobe Illustrator 16.0.0, SVG Export Plug-In . SVG Version: 6.00 Build 0)  -->
<!DOCTYPE svg PUBLIC "-//W3C//DTD SVG 1.1//EN" "http://www.w3.org/Graphics/SVG/1.1/DTD/svg11.dtd">
<svg version="1.1" id="basis" xmlns="http://www.w3.org/2000/svg" xmlns:xlink="http://www.w3.org/1999/xlink" x="0px" y="0px"
	 width="142.842px" height="43.954px" viewBox="0 0 142.842 43.954" enable-background="new 0 0 142.842 43.954"
	 xml:space="preserve">
<g>
	<path fill="#494949" d="M142.842,24.742c-0.5,0.032-0.721,0.032-1.094,0.032c-0.314,0-0.721,0-1.176-0.032
		c-0.172,0.626-0.467,1.518-0.953,2.847c-0.406,1.126-0.656,2.049-0.783,2.957h-0.045c-0.203-1.143-0.361-1.611-0.861-2.957
		c-0.439-1.126-0.799-2.065-1.064-2.847c-0.516,0.032-0.672,0.032-1.141,0.032c-0.422,0-0.924,0-1.156-0.032
		c0.092,0.516,0.248,0.984,1.859,4.458c0.812,1.753,1.127,2.55,1.408,3.113c-0.268,0.423-0.422,0.75-0.781,1.58
		c-0.312,0.72-0.549,1.235-0.908,1.907c0.547-0.03,0.781-0.03,1.328-0.03c0.395,0,0.83,0.015,1.08,0.03
		c0.377-1.078,0.736-1.986,1.738-4.535C141.887,27.197,142.67,25.414,142.842,24.742 M134.002,26.791
		c-0.029-0.375-0.045-0.579-0.045-0.923c0-0.328,0-0.656,0.045-1.079c-0.436,0.062-1.891,0-2.314,0.142l-0.045-0.031
		c0.139-0.626,0.078-1.236,0.154-1.878c-0.578,0.125-1.295,0.171-1.893,0.188c0.031,0.469,0.031,1.394,0.143,1.69l-0.033,0.015
		c-0.373-0.11-1.281-0.077-1.768-0.125c0.033,0.297,0.047,0.625,0.047,1.033c0,0.421-0.014,0.578-0.047,0.969
		c0.395-0.046,1.189-0.031,1.689-0.203l0.047,0.032c-0.139,0.906-0.248,2.69-0.248,3.582c0,1.877,0.703,2.737,2.455,2.737
		c0.625,0,1.268-0.079,1.783-0.22c-0.033-0.328-0.078-0.688-0.078-0.985c0-0.312,0-0.578,0.014-0.812
		c-0.266,0.045-0.561,0.062-0.891,0.062c-1.143,0-1.281-0.188-1.281-1.455c0-0.876-0.094-2.377-0.188-2.894l0.045-0.062
		C132.189,26.76,133.363,26.713,134.002,26.791 M125.383,28.229c-0.5-0.062-1.125-0.093-1.703-0.093
		c-0.643,0-1.283,0.031-1.879,0.109c0-1.314,0.643-1.924,1.895-1.924C124.945,26.322,125.383,26.838,125.383,28.229 M127.324,29.497
		v-0.641c0-3.05-1.299-4.411-3.598-4.411c-2.395,0-3.863,1.767-3.863,4.301c0,2.676,1.609,4.239,4.191,4.239
		c1.25,0,2.205-0.282,2.754-0.72c-0.109-0.483-0.156-1.36-0.156-1.611c-0.609,0.346-1.551,0.471-2.533,0.471
		c-1.346,0-2.143-0.564-2.27-1.722c0.25,0.062,0.906,0.094,1.484,0.094H127.324z M118.094,24.742
		c-0.389,0.016-0.719,0.032-1.127,0.032c-0.469,0-0.67-0.017-1.094-0.032c0.033,1.267,0.078,2.784,0.078,4.192
		c0,1.141-0.031,2.534-0.031,3.864c0.408-0.016,0.643-0.031,1.047-0.031c0.408,0,0.674,0.016,1.082,0.031
		c-0.018-1.347-0.049-2.724-0.049-3.864C118,27.526,118.049,26.119,118.094,24.742 M118.252,23.163
		c-0.031-0.423-0.031-0.595-0.031-0.986c0-0.391,0.016-0.579,0.031-0.954c-0.391,0.017-0.768,0.031-1.299,0.031
		c-0.516,0-0.877-0.015-1.281-0.031c0.031,0.312,0.031,0.563,0.031,0.954c0,0.392,0,0.578-0.018,0.986
		c0.438-0.017,0.721-0.032,1.281-0.032C117.531,23.131,117.875,23.146,118.252,23.163 M114.324,25.383
		c-0.533-0.641-1.299-0.891-2.346-0.891c-2.582,0-4.178,1.799-4.178,4.191c0,2.456,1.596,4.302,4.131,4.302
		c0.904,0,1.719-0.297,2.268-0.828c-0.109-0.547-0.172-1.362-0.172-1.816c-0.562,0.471-1.174,0.659-1.986,0.659
		c-1.441,0-2.271-0.908-2.271-2.285c0-1.346,0.816-2.235,2.271-2.235c0.938,0,1.453,0.172,2.031,0.734
		C114.121,26.463,114.199,25.791,114.324,25.383 M104.516,28.7c0,1.392-0.688,2.471-2.064,2.471s-2.066-1.079-2.066-2.471
		c0-1.472,0.707-2.331,2.08-2.331C103.842,26.369,104.516,27.229,104.516,28.7 M106.455,28.7c0-2.597-1.643-4.255-4.004-4.255
		c-2.363,0-4.004,1.658-4.004,4.223c0,2.612,1.58,4.412,4.004,4.412S106.455,31.28,106.455,28.7 M97.055,30.341
		c0-1.281-0.641-1.907-2.127-2.173c-1.486-0.28-1.598-0.391-1.598-0.893c0-0.562,0.439-0.844,1.551-0.844
		c0.797,0,1.438,0.094,1.938,0.391c0.031-0.656,0.096-1.329,0.221-1.705c-0.576-0.469-1.406-0.625-2.266-0.625
		c-2.191,0-3.396,1.048-3.396,2.674c0,1.22,0.578,1.941,2.189,2.223c1.406,0.249,1.564,0.374,1.564,0.875
		c0,0.596-0.312,0.845-1.344,0.845c-0.738,0-1.408-0.142-1.988-0.39c-0.018,0.547-0.061,1.188-0.156,1.704
		c0.547,0.39,1.406,0.562,2.205,0.562C95.85,32.985,97.055,32.031,97.055,30.341 M84.416,27.026
		c-0.047,0.391-0.096,1.017-0.096,1.485c0,0.58,0.033,1.049,0.049,1.22c-0.281,0.439-0.797,0.705-1.658,0.705
		c-1.252,0-1.926-0.735-1.926-1.987c0-1.221,0.533-1.924,1.846-1.924C83.523,26.525,84.057,26.697,84.416,27.026 M86.404,24.742
		c-0.377,0.016-0.566,0.032-0.799,0.032c-0.221,0-0.486-0.017-0.783-0.032c-0.078,0.265-0.141,0.531-0.203,0.955l-0.047,0.029
		c-0.391-0.781-1.018-1.188-2.158-1.188c-2.207,0-3.615,1.487-3.615,3.911c0,2.253,1.502,3.848,3.645,3.848
		c1.018,0,1.676-0.641,1.926-1.267l0.029,0.016c-0.014,0.142-0.045,0.392-0.045,0.641v0.376c0,1.394-0.625,1.972-2.098,1.972
		c-0.625,0-1.203-0.062-1.719-0.22c-0.016,0.579-0.047,1.126-0.141,1.752c0.594,0.297,1.281,0.407,1.955,0.407
		c2.33,0,3.975-1.205,3.975-4.177v-3.302C86.326,27.12,86.355,26.009,86.404,24.742 M75.203,30.688
		c-0.312,0.438-0.736,0.641-1.486,0.641c-0.861,0-1.223-0.282-1.223-0.923c0-0.688,0.439-0.923,1.457-0.987
		c0.516-0.029,0.939-0.029,1.252-0.093V30.688z M77.346,32.799c-0.127-0.72-0.188-1.439-0.188-2.111V27.73
		c0-2.27-1.064-3.254-3.428-3.254c-1.281,0-2.283,0.358-2.861,1.174c0.127,0.423,0.174,1.001,0.203,1.625l0.031,0.031
		c0.424-0.547,1.252-0.891,2.488-0.891c1.221,0,1.611,0.219,1.611,1.204v0.406h-0.391c-2.816,0-4.209,0.688-4.209,2.582
		c0,1.549,1.018,2.44,2.66,2.44c1.252,0,1.828-0.532,2.158-1.534h0.061c0.018,0.423,0.094,0.892,0.174,1.284
		c0.377-0.016,0.672-0.031,0.877-0.031C76.799,32.768,77.094,32.783,77.346,32.799 M66.975,30.688
		c-0.312,0.438-0.736,0.641-1.484,0.641c-0.861,0-1.221-0.282-1.221-0.923c0-0.688,0.438-0.923,1.455-0.987
		c0.514-0.029,0.938-0.029,1.25-0.093V30.688z M69.117,32.799c-0.125-0.72-0.188-1.439-0.188-2.111V27.73
		c0-2.27-1.064-3.254-3.424-3.254c-1.285,0-2.285,0.358-2.863,1.174c0.125,0.423,0.172,1.001,0.203,1.625l0.031,0.031
		c0.422-0.547,1.252-0.891,2.486-0.891c1.221,0,1.611,0.219,1.611,1.204v0.406h-0.391c-2.814,0-4.209,0.688-4.209,2.582
		c0,1.549,1.018,2.44,2.662,2.44c1.25,0,1.828-0.532,2.158-1.534h0.061c0.016,0.423,0.096,0.892,0.174,1.284
		c0.375-0.016,0.67-0.031,0.875-0.031C68.572,32.768,68.867,32.783,69.117,32.799 M61.625,24.742c-0.453,0.047-0.609,0.032-1,0.032
		c-0.422,0-0.564,0-1.08-0.032c-0.141,0.735-0.469,1.769-0.703,2.706c-0.268,1.063-0.518,2.237-0.658,3.191h-0.047
		c-0.156-1.002-0.5-2.159-0.906-3.442c-0.393-1.188-0.674-2.002-0.861-2.455c-0.172,0.016-0.531,0.032-0.828,0.032
		s-0.658-0.017-0.83-0.032c-0.201,0.47-0.453,1.251-0.844,2.455c-0.391,1.269-0.752,2.504-0.908,3.442h-0.031
		c-0.141-0.923-0.375-1.972-0.672-3.191c-0.234-0.971-0.547-1.955-0.703-2.706c-0.424,0.032-0.674,0.032-1.113,0.032
		c-0.406,0-0.529,0-1.016-0.032c0,0.328,0.33,1.486,1.316,4.536c0.498,1.533,0.842,2.613,1.078,3.521
		c0.312-0.016,0.611-0.031,0.938-0.031c0.281,0,0.734,0.016,0.891,0.031c0.127-0.282,0.785-1.815,1.205-3.161
		c0.299-0.954,0.562-1.846,0.641-2.752h0.049c0.094,0.906,0.342,1.798,0.656,2.721c0.453,1.347,1.096,2.927,1.205,3.192
		c0.156-0.016,0.609-0.031,0.955-0.031c0.279,0,0.875,0.031,0.875,0.031c0.188-0.846,0.518-1.846,1.062-3.505
		C61.25,26.26,61.625,25.023,61.625,24.742"/>
	<path fill="#494949" d="M21.978-0.051C9.839-0.051,0,9.789,0,21.926c0,12.138,9.839,21.978,21.978,21.978
		c12.136,0,21.976-9.84,21.976-21.978C43.953,9.789,34.113-0.051,21.978-0.051z M26.531,32.291l-0.045-6.95
		c-0.049-2.584-1.992-4.746-4.531-4.746s-4.486,2.162-4.486,4.746v6.95H9.227l1.403-13.808l4.03-8.45l1.723,6.951l5.572-9.396
		l5.66,9.396l1.637-6.951l4.072,8.45l1.404,13.808H26.531z"/>
</g>
</svg>
