<?xml version="1.0" encoding="utf-8"?>
<!-- Generator: Adobe Illustrator 16.0.0, SVG Export Plug-In . SVG Version: 6.00 Build 0)  -->
<!DOCTYPE svg PUBLIC "-//W3C//DTD SVG 1.1//EN" "http://www.w3.org/Graphics/SVG/1.1/DTD/svg11.dtd">
<svg version="1.1" id="basis" xmlns="http://www.w3.org/2000/svg" xmlns:xlink="http://www.w3.org/1999/xlink" x="0px" y="0px"
	 width="32px" height="32px" viewBox="0 0 32 32" enable-background="new 0 0 32 32" xml:space="preserve">
<g>
	<path fill-rule="evenodd" clip-rule="evenodd" fill="#666666" d="M29.112,11.154c-0.146,0.213-0.264,0.455-0.447,0.628
		c-0.123,0.113-0.338,0.138-0.515,0.18c-0.105,0.024-0.22,0.007-0.331,0.007c-7.843,0-15.686-0.004-23.528,0.009
		c-0.642,0-1.085-0.198-1.292-0.823c0-0.46,0-0.919,0-1.377C3.144,9.445,3.422,9.266,3.73,9.111
		c4.009-2.002,8.017-4.004,12.023-6.009c0.088-0.044,0.168-0.105,0.251-0.159c0.034,0,0.067,0,0.102,0
		c0.084,0.054,0.162,0.115,0.25,0.159c4.008,2.005,8.016,4.007,12.024,6.009c0.308,0.154,0.587,0.334,0.731,0.666
		C29.112,10.235,29.112,10.694,29.112,11.154z"/>
	<path fill-rule="evenodd" clip-rule="evenodd" fill="#666666" d="M2.999,25.841c0.233-0.642,0.717-0.809,1.361-0.808
		c7.797,0.012,15.594,0.012,23.391,0c0.644-0.001,1.128,0.166,1.361,0.808c0,0.799,0,1.599,0,2.397
		c-0.14,0.405-0.412,0.678-0.816,0.817c-8.16,0-16.32,0-24.48,0c-0.406-0.14-0.678-0.412-0.816-0.817
		C2.999,27.439,2.999,26.64,2.999,25.841z"/>
	<path fill-rule="evenodd" clip-rule="evenodd" fill="#666666" d="M6.021,14.999c-0.688-0.116-0.991-0.462-1.007-1.113
		c-0.006-0.287-0.001-0.574-0.001-0.877c2.011,0,3.993,0,5.979,0c0,0.418,0.053,0.831-0.015,1.225
		c-0.081,0.468-0.443,0.699-0.94,0.759c0,2.992,0,5.986,0,9.005c-1.349,0-2.667,0-4.016,0C6.021,21,6.021,18.006,6.021,14.999z"/>
	<path fill-rule="evenodd" clip-rule="evenodd" fill="#666666" d="M21.115,13.006c1.999,0,3.975,0,5.945,0
		c0,0.419,0.054,0.833-0.014,1.228c-0.081,0.479-0.46,0.704-0.948,0.763c0,3,0,5.986,0,8.999c-1.338,0-2.657,0-4.005,0
		c0-2.993,0-5.987,0-8.953c-0.221-0.091-0.44-0.13-0.58-0.256c-0.168-0.151-0.348-0.364-0.382-0.572
		C21.073,13.826,21.115,13.423,21.115,13.006z"/>
	<path fill-rule="evenodd" clip-rule="evenodd" fill="#666666" d="M19.057,13.016c0,0.352,0.012,0.684-0.002,1.014
		c-0.021,0.519-0.346,0.837-1.002,0.979c0,2.988,0,5.982,0,8.996c-1.336,0-2.641,0-3.986,0c0-3.001,0-6.002,0-8.992
		c-0.767-0.171-1.015-0.481-1.015-1.235c0-0.247,0-0.492,0-0.761C15.051,13.016,17.041,13.016,19.057,13.016z"/>
</g>
</svg>
