<?xml version="1.0" encoding="utf-8"?>
<!-- Generator: Adobe Illustrator 16.0.0, SVG Export Plug-In . SVG Version: 6.00 Build 0)  -->
<!DOCTYPE svg PUBLIC "-//W3C//DTD SVG 1.1//EN" "http://www.w3.org/Graphics/SVG/1.1/DTD/svg11.dtd">
<svg version="1.1" id="basis" xmlns="http://www.w3.org/2000/svg" xmlns:xlink="http://www.w3.org/1999/xlink" x="0px" y="0px"
	 width="32px" height="51.333px" viewBox="0 0 32 51.333" enable-background="new 0 0 32 51.333" xml:space="preserve">
<path fill="#666666" d="M3.588,2.445V48h8.091V37.058h3.577V48h1.491V37.058h3.577V48h8.004V2.445H3.588z M10.018,42.64H6.441
	v-5.582h3.576V42.64z M10.018,35.206H6.441v-5.582h3.576V35.206z M10.018,27.426H6.441v-5.582h3.576V27.426z M10.018,19.142H6.441
	v-5.581h3.576V19.142z M10.15,11.621H6.574V6.04h3.576V11.621z M15.256,35.206h-3.577v-5.582h3.577V35.206z M15.256,27.426h-3.577
	v-5.582h3.577V27.426z M15.256,19.142H11.68v-5.581h3.576V19.142z M15.389,11.621h-3.576V6.04h3.576V11.621z M20.324,35.206h-3.577
	v-5.582h3.577V35.206z M20.324,27.426h-3.577v-5.582h3.577V27.426z M20.324,19.142h-3.577v-5.581h3.577V19.142z M20.457,11.621
	h-3.576V6.04h3.576V11.621z M25.475,42.64h-3.575v-5.582h3.575V42.64z M25.475,35.206h-3.575v-5.582h3.575V35.206z M25.475,27.426
	h-3.575v-5.582h3.575V27.426z M25.476,19.142h-3.576v-5.581h3.576V19.142z M25.608,11.621h-3.576V6.04h3.576V11.621z"/>
</svg>
