<?xml version="1.0" encoding="utf-8"?>
<!-- Generator: Adobe Illustrator 16.0.0, SVG Export Plug-In . SVG Version: 6.00 Build 0)  -->
<!DOCTYPE svg PUBLIC "-//W3C//DTD SVG 1.1//EN" "http://www.w3.org/Graphics/SVG/1.1/DTD/svg11.dtd">
<svg version="1.1" id="basis" xmlns="http://www.w3.org/2000/svg" xmlns:xlink="http://www.w3.org/1999/xlink" x="0px" y="0px"
	 width="32px" height="32px" viewBox="0 0 32 32" enable-background="new 0 0 32 32" xml:space="preserve">
<g>
	<path fill="#666666" d="M29.706,8.436c0,0-1.861-0.375-2.975-0.109c-0.616,0.082-0.772,0.534-0.772,0.534
		c-0.057,0.156-0.029,0.383,0.036,0.652c0.028,0.099,0.052,0.199,0.077,0.298c0.268,0.947,0.45,2.19,0.256,4.085
		c-0.565,4.838-4.435,8.392-9.289,8.905v5.713h6.219v-5.131c0,0,4.422-4.056,5.433-5.804C28.69,17.579,31.417,13.321,29.706,8.436z"
		/>
	<path fill="#666666" d="M5.448,12.384c0-0.038,0.005-0.073,0.005-0.11c0.001-0.174,0.009-0.344,0.026-0.512
		c0.06-0.992,0.253-1.946,0.57-2.846C6.046,8.897,6.048,8.876,6.041,8.86c0,0-0.156-0.452-0.772-0.534
		C4.154,8.061,2.294,8.436,2.294,8.436c-1.711,4.886,1.016,9.144,1.016,9.144c1.011,1.748,5.433,5.804,5.433,5.804v5.131h6.219
		v-5.698C9.634,22.322,5.448,17.836,5.448,12.384z"/>
	<path fill="#666666" d="M25.512,11.954c0-5.314-4.309-9.621-9.621-9.621c-5.313,0-9.621,4.307-9.621,9.621
		c0,5.313,4.308,9.62,9.621,9.62C21.203,21.574,25.512,17.268,25.512,11.954z M19.508,6.152l0.688-0.461c0,0-0.29-0.739-0.241-1.104
		c0.168-0.081,0.845,0.272,1.418,0.876c-0.387,1.435-1.289,1.263-1.289,1.263S19.42,6.712,19.508,6.152z M13.709,14.622
		c-0.043,0.215-0.303,0.732-0.474,1.077c-0.171,0.346-0.259,0.473-0.474,0.644c-0.214,0.177-0.346,0.475-0.346,0.475l-0.042,0.732
		c0,0,0.084,0.604,0.214,0.82c0.129,0.213-0.461,1.497-0.461,1.497c-0.375-0.076-0.582-0.509-0.712-0.852
		c-0.13-0.348-0.303-0.527-0.259-0.914c0.045-0.389-0.337-0.592-0.463-0.809c-0.127-0.219-0.301-0.516-0.301-0.734
		c0-0.216-0.473-0.514-0.473-0.514s-0.862-0.39-0.991-0.562c-0.129-0.173-0.26-0.908-0.303-1.206
		c-0.041-0.299,0.129-1.074,0.129-1.074s0.349-0.263,0.13-0.477c-0.216-0.214-0.259-0.776-0.259-0.776l-0.389-0.429
		c0,0-0.301-0.428-0.341-0.646c-0.046-0.217,0-0.345,0.04-0.561c0.043-0.218-0.086-0.604-0.086-0.816
		c1.608-3.95,4.307-4.868,4.307-4.868l0.217,0.904c0,0-0.475,0.127-0.73,0.043c-0.26-0.087-0.39-0.087-0.39-0.087L10.91,5.966
		c0,0-0.131,0.302-0.175,0.474c-0.042,0.172,0.084,0.43,0.084,0.43s0.606,0.044,0.606-0.13c0-0.172-0.086-0.255-0.086-0.255
		l-0.086-0.303c0,0,0.39-0.216,1.42-0.132c1.035,0.087,0.649,0.819,1.079,0.993c0.432,0.174-0.347,0.772-0.518,1.118
		c-0.171,0.345-0.432-0.432-0.432-0.432s0.261-0.298-0.171-0.386c-0.432-0.085-0.717,0.775-0.499,0.733
		c0.216-0.044,0.455,0.231,0.414,0.444c-0.046,0.216-0.046,0.201-0.262,0.675c-0.213,0.475-0.683,0.821-0.683,0.821
		s-0.22-0.133-0.092,0.125c0.132,0.259-0.042,0.864-0.042,1.033c0,0.173-0.517-0.3-0.602-0.731
		c-0.089-0.431-0.593-0.057-0.764-0.012c-0.176,0.045-0.488-0.075-0.571-0.29c-0.087-0.215-0.864,0.43-1.079,0.559
		c-0.217,0.129-0.128,0.475,0.215,0.306c0.345-0.177,0.646-0.045,0.561,0.303c-0.087,0.34-0.43,0.127-0.386,0.34
		c0.041,0.216,0.386,0.434,0.471,0.734c0.088,0.299,0.906,0.042,1.164-0.085c0.257-0.132,0.991-0.261,1.077,0.085
		c0.088,0.343,0.903,0.472,1.206,0.557c0.303,0.087,0.904,0.128,1.248,0.475C14.354,13.762,13.753,14.405,13.709,14.622z
		 M15.645,4.545c-0.042,0.429-0.729,0.99-0.644,1.164c0.087,0.173,0,0.908-0.604,0.263s-1.208-0.865-1.162-1.298
		c0.01-0.086,0.623-0.224,0.634-0.372c0.913-0.851,2.371-0.676,2.481-0.476C16.092,4.257,15.688,4.111,15.645,4.545z M20.929,18.599
		c-0.459-0.46-0.229-0.862-0.229-0.862l0.129-0.688l0.072-1.164c0,0,0-1.203-1.148-0.631c-1.234,0.313-0.721,0.313-1.969,0.401
		c-1.248,0.084-1.042-2.546-1.042-2.546c0-3.942,3.023-0.968,3.023-0.968c1.723,1.147,1.953-0.953,1.953-0.953l1.263-0.453
		l0.115-0.578l-0.183-0.803l-1.835-0.757c0,0-0.178,0.599,0.293,1.33c0,0-0.157,0.832-0.543,0.616l-1.063-0.534
		c0,0-0.358-0.153-0.934,0.189c-0.572,0.345-1.548-0.017-1.548-0.017s0.078-0.574,0.684-0.875l0.496-0.327
		c0,0-0.133-0.59-0.018-1.047c0.113-0.462,0.315-0.058,0.773-0.402c0.459-0.343,0.777,0.674,1.464,0.559
		c0.688-0.113,0.345-0.229,0.805-0.459c0.461-0.229,0.805,0.459,0.805,0.459l0.918,0.115c0,0-0.145-1.04-0.08-0.77
		c0.581,1,1.433,3.665,1.118,4.14C24.06,11.492,23.9,11.42,23.9,11.42h-1.149l0.688,0.806c0,0,0.334,0.49,0.806,0.457
		C23.935,16.285,20.929,18.599,20.929,18.599z"/>
</g>
</svg>
