<?xml version="1.0" encoding="utf-8"?>
<!-- Generator: Adobe Illustrator 16.0.0, SVG Export Plug-In . SVG Version: 6.00 Build 0)  -->
<!DOCTYPE svg PUBLIC "-//W3C//DTD SVG 1.1//EN" "http://www.w3.org/Graphics/SVG/1.1/DTD/svg11.dtd">
<svg version="1.1" id="basis" xmlns="http://www.w3.org/2000/svg" xmlns:xlink="http://www.w3.org/1999/xlink" x="0px" y="0px"
	 width="24px" height="24px" viewBox="0 0 24 24" enable-background="new 0 0 24 24" xml:space="preserve">
<g>
	<rect x="2.185" y="16.769" fill-rule="evenodd" clip-rule="evenodd" fill="#666666" width="3.62" height="6.014"/>
	<rect x="2.185" y="13.544" fill-rule="evenodd" clip-rule="evenodd" fill="#666666" width="3.62" height="2.149"/>
	<rect x="2.185" y="10.49" fill-rule="evenodd" clip-rule="evenodd" fill="#666666" width="3.62" height="2.149"/>
	<rect x="2.185" y="7.38" fill-rule="evenodd" clip-rule="evenodd" fill="#666666" width="3.62" height="2.149"/>
	<rect x="18.39" y="16.769" fill-rule="evenodd" clip-rule="evenodd" fill="#666666" width="3.619" height="6.014"/>
	<rect x="18.39" y="13.544" fill-rule="evenodd" clip-rule="evenodd" fill="#666666" width="3.619" height="2.149"/>
	<rect x="18.39" y="10.49" fill-rule="evenodd" clip-rule="evenodd" fill="#666666" width="3.619" height="2.149"/>
	<rect x="18.39" y="7.38" fill-rule="evenodd" clip-rule="evenodd" fill="#666666" width="3.619" height="2.149"/>
	<rect x="7.672" y="10.659" fill-rule="evenodd" clip-rule="evenodd" fill="#666666" width="3.619" height="12.123"/>
	<rect x="7.672" y="7.437" fill-rule="evenodd" clip-rule="evenodd" fill="#666666" width="3.619" height="2.148"/>
	<rect x="7.672" y="4.381" fill-rule="evenodd" clip-rule="evenodd" fill="#666666" width="3.619" height="2.15"/>
	<rect x="7.672" y="1.271" fill-rule="evenodd" clip-rule="evenodd" fill="#666666" width="3.619" height="2.149"/>
	<rect x="12.889" y="15.412" fill-rule="evenodd" clip-rule="evenodd" fill="#666666" width="3.62" height="7.371"/>
	<rect x="12.889" y="12.187" fill-rule="evenodd" clip-rule="evenodd" fill="#666666" width="3.62" height="2.149"/>
	<rect x="12.889" y="9.132" fill-rule="evenodd" clip-rule="evenodd" fill="#666666" width="3.62" height="2.149"/>
	<rect x="12.889" y="6.022" fill-rule="evenodd" clip-rule="evenodd" fill="#666666" width="3.62" height="2.149"/>
</g>
</svg>
