<?xml version="1.0" encoding="utf-8"?>
<!-- Generator: Adobe Illustrator 16.0.0, SVG Export Plug-In . SVG Version: 6.00 Build 0)  -->
<!DOCTYPE svg PUBLIC "-//W3C//DTD SVG 1.1//EN" "http://www.w3.org/Graphics/SVG/1.1/DTD/svg11.dtd">
<svg version="1.1" id="basis" xmlns="http://www.w3.org/2000/svg" xmlns:xlink="http://www.w3.org/1999/xlink" x="0px" y="0px"
	 width="32px" height="40px" viewBox="0 0 32 40" enable-background="new 0 0 32 40" xml:space="preserve">
<g>
	<g>
		<path fill="#666666" d="M2.395,1.914v2.955c0.226-0.049,4.789-1.001,8.376,1.528V1L2.395,1.914z"/>
		<polygon fill="#666666" points="2.395,22.644 10.771,21.729 10.771,16.361 2.395,16.929 		"/>
		<path fill="#666666" d="M2.395,5.76v10.051l8.376-0.569V7.564C7.409,4.759,2.449,5.748,2.395,5.76z"/>
		<path fill="#666666" d="M11.991,8.817v6.564l0.047-0.229l8.33,1.73v-3.625c-0.319,0.017-0.626,0.027-0.91,0.027
			C15.932,13.284,14.766,12.055,11.991,8.817z"/>
		<polygon fill="#666666" points="11.991,21.729 20.368,24.471 20.368,18.021 11.991,16.281 		"/>
		<path fill="#666666" d="M12.399,7.887c3.161,3.698,4.008,4.682,7.969,4.466V3.741L11.991,1v6.455
			c0.116,0.121,0.236,0.232,0.347,0.36L12.399,7.887z"/>
		<polygon fill="#666666" points="21.415,24.471 29.795,22.644 29.795,16.386 21.415,18.038 		"/>
		<path fill="#666666" d="M29.795,15.247v-4.318l-1.211,0.33c0.009,0.088,0.027,0.177,0.027,0.27c0,1.415-1.146,2.564-2.563,2.564
			c-1.038,0-1.93-0.623-2.329-1.509l-2.184,0.593c-0.042,0.004-0.078,0.006-0.12,0.009v3.716L29.795,15.247z"/>
		<path fill="#666666" d="M28.329,10.383l1.344-0.368l0.122-0.016V1.914l-8.38,1.828v8.527l2.088-0.569
			c-0.005-0.058-0.018-0.109-0.018-0.17c0-1.416,1.147-2.561,2.562-2.561C27.049,8.968,27.905,9.546,28.329,10.383z"/>
		<path fill="#666666" d="M10.771,6.396v1.168c0.307,0.254,0.6,0.526,0.873,0.845l0.061,0.074c0.1,0.116,0.193,0.221,0.287,0.334
			V7.455C11.604,7.05,11.196,6.696,10.771,6.396z"/>
		<path fill="#666666" d="M20.368,12.353v0.904c0.329-0.016,0.68-0.041,1.047-0.072v-0.917l-0.039,0.011
			C21.016,12.312,20.686,12.334,20.368,12.353z"/>
		<circle fill="#666666" cx="26.087" cy="11.525" r="1.24"/>
	</g>
</g>
<g>
	<path fill="#666666" d="M2.453,29.93c0-0.773-0.029-1.379-0.059-1.983h1.166l0.059,1.195h0.047c0.407-0.696,1.09-1.348,2.316-1.348
		c0.985,0,1.742,0.605,2.06,1.468h0.029c0.23-0.424,0.53-0.726,0.833-0.954c0.44-0.333,0.911-0.515,1.607-0.515
		c0.982,0,2.424,0.636,2.424,3.18v4.301h-1.305v-4.134c0-1.423-0.528-2.256-1.59-2.256c-0.772,0-1.348,0.561-1.589,1.197
		c-0.062,0.196-0.107,0.422-0.107,0.665v4.528H7.044v-4.392c0-1.166-0.518-1.999-1.529-1.999c-0.819,0-1.441,0.667-1.654,1.333
		c-0.073,0.181-0.104,0.424-0.104,0.65v4.408H2.453V29.93z"/>
	<path fill="#666666" d="M20.24,33.518c0,0.636,0.028,1.258,0.104,1.757h-1.195l-0.107-0.923h-0.045
		c-0.407,0.575-1.197,1.09-2.24,1.09c-1.484,0-2.241-1.045-2.241-2.105c0-1.772,1.576-2.741,4.405-2.727v-0.15
		c0-0.591-0.167-1.697-1.665-1.682c-0.696,0-1.408,0.197-1.923,0.545l-0.302-0.893c0.604-0.378,1.499-0.636,2.422-0.636
		c2.24,0,2.787,1.529,2.787,2.983V33.518z M18.953,31.535c-1.453-0.03-3.105,0.227-3.105,1.649c0,0.88,0.575,1.273,1.242,1.273
		c0.97,0,1.59-0.606,1.803-1.227c0.044-0.151,0.061-0.303,0.061-0.424V31.535z"/>
	<path fill="#666666" d="M22.391,30.338c0-0.939-0.028-1.696-0.058-2.392h1.182l0.074,1.256h0.031
		c0.53-0.894,1.408-1.408,2.604-1.408c1.786,0,3.12,1.5,3.12,3.71c0,2.635-1.621,3.938-3.347,3.938
		c-0.969,0-1.817-0.424-2.256-1.151h-0.032v3.982h-1.318V30.338z M23.709,32.292c0,0.196,0.017,0.378,0.061,0.545
		c0.242,0.923,1.046,1.559,2.002,1.559c1.407,0,2.223-1.152,2.223-2.832c0-1.454-0.771-2.71-2.179-2.71
		c-0.908,0-1.772,0.637-2.017,1.635c-0.042,0.167-0.09,0.364-0.09,0.53V32.292z"/>
</g>
</svg>
