<?xml version="1.0" encoding="utf-8"?>
<!-- Generator: Adobe Illustrator 16.0.0, SVG Export Plug-In . SVG Version: 6.00 Build 0)  -->
<!DOCTYPE svg PUBLIC "-//W3C//DTD SVG 1.1//EN" "http://www.w3.org/Graphics/SVG/1.1/DTD/svg11.dtd">
<svg version="1.1" id="basis" xmlns="http://www.w3.org/2000/svg" xmlns:xlink="http://www.w3.org/1999/xlink" x="0px" y="0px"
	 width="43.852px" height="43.954px" viewBox="0 0 43.852 43.954" enable-background="new 0 0 43.852 43.954" xml:space="preserve">
<path fill="#494949" d="M43.852,19.973c0,1.371,0,2.74,0,4.111c-0.088,0.555-0.177,1.11-0.262,1.666
	c-1.524,9.87-9.376,15.997-16.772,17.646c-1.013,0.227-2.043,0.375-3.065,0.559c-1.255,0-2.512,0-3.768,0
	c-0.388-0.068-0.773-0.148-1.162-0.203C9.995,42.508,2.601,35.748,0.564,27.034C0.328,26.024,0.186,24.992,0,23.97
	c0-1.294,0-2.589,0-3.883c0.032-0.083,0.086-0.166,0.095-0.252C0.788,13.414,3.822,8.294,8.868,4.368
	c4.815-3.748,10.355-4.826,16.307-4.049c8.84,1.154,16.148,7.849,18.107,16.543C43.514,17.89,43.663,18.936,43.852,19.973z
	 M21.954,39.899c8.283,0.127,17.969-6.568,17.93-17.698c-0.037-10.124-7.852-18.022-17.81-18.146
	C11.152,3.919,3.896,13.517,3.961,21.972C4.035,31.771,12.126,39.899,21.954,39.899z"/>
<path fill-rule="evenodd" clip-rule="evenodd" fill="#494949" d="M20.179,24.927c0.882,0.449,1.717,0.874,2.593,1.319
	c-0.932,1.681-2.291,2.726-4.12,3.155c-2.82,0.661-5.748-0.565-6.923-2.955c-0.868-1.765-0.915-3.635-0.458-5.521
	c0.386-1.599,1.334-2.796,2.744-3.625c2.317-1.361,6.924-1.18,8.702,2.276c-0.919,0.48-1.838,0.96-2.63,1.374
	c-0.571-0.496-1.009-1.027-1.57-1.333c-1.221-0.664-2.748-0.119-3.288,1.158c-0.602,1.424-0.595,2.898-0.034,4.343
	c0.383,0.986,1.131,1.539,2.195,1.599c1.104,0.062,1.981-0.35,2.545-1.336C20.006,25.256,20.071,25.128,20.179,24.927z"/>
<path fill-rule="evenodd" clip-rule="evenodd" fill="#494949" d="M34.779,19.577c-0.915,0.485-1.806,0.957-2.736,1.451
	c-0.148-0.221-0.277-0.431-0.425-0.627c-0.582-0.771-1.364-1.123-2.322-1.029c-1.008,0.098-1.746,0.609-2.088,1.577
	c-0.468,1.323-0.487,2.669-0.021,4c0.369,1.054,1.104,1.695,2.245,1.769c1.154,0.075,2.044-0.38,2.611-1.412
	c0.053-0.095,0.104-0.19,0.159-0.284c0.008-0.014,0.027-0.022,0.085-0.067c0.83,0.416,1.683,0.841,2.579,1.289
	c-0.95,1.665-2.29,2.779-4.129,3.141c-2.407,0.472-4.599,0.028-6.265-1.937c-1.116-1.318-1.386-2.923-1.363-4.589
	c0.019-1.404,0.313-2.744,1.165-3.896c1.386-1.876,3.305-2.569,5.573-2.419c1.974,0.13,3.608,0.891,4.704,2.61
	C34.628,19.271,34.686,19.4,34.779,19.577z"/>
</svg>
