<?xml version="1.0" encoding="utf-8"?>
<!-- Generator: Adobe Illustrator 16.0.0, SVG Export Plug-In . SVG Version: 6.00 Build 0)  -->
<!DOCTYPE svg PUBLIC "-//W3C//DTD SVG 1.1//EN" "http://www.w3.org/Graphics/SVG/1.1/DTD/svg11.dtd">
<svg version="1.1" id="basis" xmlns="http://www.w3.org/2000/svg" xmlns:xlink="http://www.w3.org/1999/xlink" x="0px" y="0px"
	 width="32px" height="32px" viewBox="0 0 32 32" enable-background="new 0 0 32 32" xml:space="preserve">
<path fill-rule="evenodd" clip-rule="evenodd" fill="#666666" d="M14.786,11.07c0.07-1.022,0.017-1.872,0.2-2.667
	c0.865-3.738,5.187-5.686,8.393-3.553c1.473,0.978,2.561,0.739,3.879,0.169c0.249-0.108,0.5-0.218,0.995-0.139
	c-0.607,0.842-1.213,1.684-1.93,2.68c0.847-0.203,1.604-0.382,2.526-0.603c-0.249,0.375-0.347,0.678-0.555,0.809
	c-1.902,1.211-1.982,3.147-2.269,5.119c-1.661,11.387-14.049,17.425-24.07,11.79c-0.078-0.043-0.14-0.116-0.287-0.239
	c1.405-0.2,2.764-0.241,4.023-0.616c1.274-0.377,2.456-1.081,3.641-1.817c-2.334-0.583-4.087-1.663-4.966-4.009
	c0.688-0.057,1.332-0.105,1.975-0.157c-2.364-1.178-3.925-2.785-4.041-5.622c0.782,0.187,1.426,0.341,2.493,0.598
	c-2.497-2.338-3.048-4.741-1.79-7.716C6.21,8.675,10.041,10.719,14.786,11.07z"/>
</svg>
