<?xml version="1.0" encoding="utf-8"?>
<!-- Generator: Adobe Illustrator 16.0.0, SVG Export Plug-In . SVG Version: 6.00 Build 0)  -->
<!DOCTYPE svg PUBLIC "-//W3C//DTD SVG 1.1//EN" "http://www.w3.org/Graphics/SVG/1.1/DTD/svg11.dtd">
<svg version="1.1" id="basis" xmlns="http://www.w3.org/2000/svg" xmlns:xlink="http://www.w3.org/1999/xlink" x="0px" y="0px"
	 width="19.148px" height="46.519px" viewBox="0 0 19.148 46.519" enable-background="new 0 0 19.148 46.519" xml:space="preserve">
<path fill="#727272" d="M13.036,29.79V18.213H6.415v11.648l-0.172,0.004c-2.59,1.285-4.374,3.949-4.374,7.036
	c0,4.339,3.517,7.856,7.856,7.856c4.339,0,7.857-3.518,7.857-7.856C17.583,33.748,15.717,31.041,13.036,29.79z"/>
<path fill="none" stroke="#666666" stroke-miterlimit="10" d="M12.864,29.7V4.965c0-1.828-1.482-3.311-3.311-3.311
	S6.243,3.137,6.243,4.965v24.9c-2.59,1.285-4.374,3.949-4.374,7.036c0,4.339,3.517,7.856,7.856,7.856
	c4.339,0,7.857-3.518,7.857-7.856C17.583,33.679,15.64,30.912,12.864,29.7z"/>
</svg>
