<?xml version="1.0" encoding="utf-8"?>
<!-- Generator: Adobe Illustrator 16.0.0, SVG Export Plug-In . SVG Version: 6.00 Build 0)  -->
<!DOCTYPE svg PUBLIC "-//W3C//DTD SVG 1.1//EN" "http://www.w3.org/Graphics/SVG/1.1/DTD/svg11.dtd">
<svg version="1.1" id="basis" xmlns="http://www.w3.org/2000/svg" xmlns:xlink="http://www.w3.org/1999/xlink" x="0px" y="0px"
	 width="32px" height="32px" viewBox="0 0 32 32" enable-background="new 0 0 32 32" xml:space="preserve">
<path fill-rule="evenodd" clip-rule="evenodd" fill="#666666" d="M14.857,9.698c-0.401-1.263-0.772-2.436-1.143-3.605
	c-4.346,0.802-8.053,4.553-8.849,9.271C3.938,20.844,6.822,25.825,11.502,28c4.862,2.26,10.236,0.895,13.566-2.792
	c3.386-3.748,4.557-9.953,0.126-15.573c0.615-0.483,1.25-0.947,1.84-1.459c0.295-0.255,0.486-0.21,0.694,0.059
	c1.566,2.04,2.615,4.286,3.077,6.85c0.47,2.606,0.196,5.113-0.756,7.517c-1.997,5.047-5.725,8.051-11.06,9.118
	c-3.229,0.646-6.262,0.041-9.132-1.38c-2.469-1.222-4.395-3.089-5.806-5.495c-1.417-2.415-2.154-5.019-2.052-7.78
	c0.133-3.513,1.319-6.668,3.733-9.321c1.818-1.999,3.984-3.402,6.572-4.16c0.473-0.138,0.618-0.336,0.413-0.855
	c-0.277-0.705-0.438-1.458-0.624-2.196c-0.04-0.155,0.023-0.336,0.04-0.507c0.147,0.015,0.305-0.002,0.438,0.049
	c2.159,0.844,4.313,1.7,6.474,2.546c0.443,0.175,0.611,0.494,0.348,0.878c-1.348,1.958-2.72,3.897-4.092,5.838
	C15.228,9.443,15.095,9.509,14.857,9.698z"/>
<path fill-rule="evenodd" clip-rule="evenodd" fill="#666666" d="M14.574,13.23c0,1.713,0,3.435,0,5.195c-0.22,0-0.403,0-0.656,0
	c0-1.017,0-2.015,0-3.014c-0.063-0.01-0.128-0.021-0.191-0.03c-0.142,0.605-0.285,1.209-0.422,1.814
	c-0.057,0.252-0.059,0.522-0.15,0.758c-0.075,0.191-0.251,0.342-0.381,0.51c-0.145-0.179-0.364-0.337-0.419-0.54
	c-0.174-0.643-0.279-1.304-0.425-1.956c-0.046-0.199-0.133-0.387-0.326-0.562c0,0.991,0,1.982,0,3.015
	c-0.253,0.017-0.44,0.03-0.674,0.045c0-1.763,0-3.482,0-5.254c0.311,0,0.626,0,1.017,0c0.238,1.206,0.486,2.445,0.731,3.685
	c0.042,0.008,0.084,0.016,0.126,0.024c0.062-0.182,0.147-0.36,0.181-0.547c0.146-0.808,0.289-1.617,0.407-2.429
	C13.487,13.282,13.795,12.972,14.574,13.23z"/>
<path fill-rule="evenodd" clip-rule="evenodd" fill="#666666" d="M21.65,18.441c-0.284,0-0.476,0-0.69,0
	c-0.148-0.53-0.273-1.072-0.464-1.59c-0.061-0.165-0.292-0.265-0.446-0.395c-0.101,0.156-0.276,0.306-0.289,0.47
	c-0.04,0.476-0.015,0.958-0.015,1.488c-0.24,0-0.439,0-0.665,0c0-1.743,0-3.46,0-5.249c0.487,0,0.944-0.042,1.392,0.01
	c0.564,0.067,1.021,0.342,0.979,0.995c-0.039,0.628-0.178,1.249-0.24,1.875c-0.028,0.286-0.011,0.586,0.047,0.867
	C21.36,17.412,21.509,17.901,21.65,18.441z M19.792,13.774c0,0.762,0,1.362,0,2.159c0.417-0.2,0.911-0.284,0.983-0.506
	c0.131-0.396,0.1-0.912-0.048-1.308C20.658,13.931,20.163,13.9,19.792,13.774z"/>
<path fill-rule="evenodd" clip-rule="evenodd" fill="#666666" d="M18.222,18.446c-0.314,0-0.486,0-0.687,0
	c-0.087-0.375-0.174-0.747-0.265-1.135c-0.289,0-0.549,0-0.788,0c-0.508,0.207,0.087,1.327-1.03,1.104
	c0.294-1.748,0.581-3.463,0.873-5.216c0.333,0,0.649,0,1.007,0C17.624,14.927,17.916,16.645,18.222,18.446z M16.893,14.583
	c-0.054-0.003-0.105-0.005-0.158-0.008c-0.096,0.636-0.191,1.273-0.291,1.947c0.288,0,0.507,0,0.781,0
	C17.106,15.833,16.999,15.208,16.893,14.583z"/>
<path fill-rule="evenodd" clip-rule="evenodd" fill="#666666" d="M7.638,17.026c0.193,0.146,0.464,0.251,0.563,0.446
	c0.213,0.419,0.543,0.57,0.898,0.357c0.381-0.228,0.434-0.661,0.146-1.019c-0.3-0.371-0.708-0.657-0.988-1.039
	c-0.274-0.372-0.566-0.798-0.638-1.234c-0.13-0.793,0.246-1.29,0.856-1.375c0.884-0.125,1.254,0.124,1.566,1.233
	c-0.352-0.171-0.575-0.278-0.798-0.389c-0.175-0.087-0.394-0.289-0.515-0.241c-0.18,0.071-0.443,0.371-0.404,0.479
	c0.156,0.443,0.332,0.937,0.655,1.252c0.542,0.53,1.091,1.021,1.059,1.844c-0.026,0.695-0.47,1.164-1.104,1.251
	C8.363,18.67,7.823,18.299,7.6,17.668c-0.05-0.139-0.086-0.281-0.127-0.421C7.526,17.173,7.582,17.1,7.638,17.026z"/>
<path fill-rule="evenodd" clip-rule="evenodd" fill="#666666" d="M24.709,13.161c0,0.26,0,0.447,0,0.667
	c-0.285,0.023-0.541,0.045-0.856,0.071c0,1.493,0,2.974,0,4.524c-0.257,0.014-0.457,0.025-0.722,0.039c0-1.544,0-3.025,0-4.545
	c-0.224-0.022-0.409,0-0.551-0.068c-0.142-0.068-0.238-0.228-0.354-0.348c0.126-0.113,0.248-0.318,0.378-0.325
	C23.278,13.143,23.958,13.161,24.709,13.161z"/>
<path fill-rule="evenodd" clip-rule="evenodd" fill="#666666" d="M20.711,19.005c0.162,0.178,0.391,0.33,0.471,0.539
	c0.221,0.56,0.376,1.145,0.557,1.721c0.067-0.015,0.135-0.028,0.201-0.042c0-0.559-0.017-1.119,0.012-1.676
	c0.006-0.153,0.143-0.3,0.22-0.449c0.068,0.135,0.194,0.27,0.198,0.406c0.017,0.896,0.023,1.793-0.005,2.688
	c-0.005,0.163-0.191,0.32-0.293,0.479c-0.11-0.131-0.269-0.245-0.324-0.397c-0.213-0.589-0.394-1.189-0.586-1.786
	c-0.069,0.012-0.139,0.024-0.209,0.037c0,0.698,0,1.396,0,2.095c-0.07,0.023-0.141,0.047-0.209,0.071
	c-0.083-0.141-0.233-0.281-0.236-0.423c-0.021-1.026-0.011-2.051-0.011-3.076C20.567,19.129,20.64,19.067,20.711,19.005z"/>
<path fill-rule="evenodd" clip-rule="evenodd" fill="#666666" d="M10.274,20.856c0,0.328-0.036,0.662,0.017,0.981
	c0.023,0.146,0.221,0.263,0.34,0.394c0.127-0.12,0.266-0.23,0.381-0.364c0.104-0.122,0.183-0.268,0.272-0.403
	c0.058,0.168,0.201,0.372,0.151,0.496c-0.106,0.258-0.285,0.63-0.488,0.669c-0.287,0.056-0.892-0.131-0.898-0.245
	c-0.063-1.013-0.056-2.035,0.024-3.047c0.009-0.105,0.653-0.263,0.964-0.201c0.179,0.036,0.302,0.454,0.401,0.719
	c0.025,0.068-0.133,0.206-0.207,0.312c-0.071-0.087-0.145-0.173-0.213-0.262c-0.127-0.164-0.252-0.329-0.377-0.494
	c-0.123,0.197-0.306,0.381-0.357,0.596c-0.062,0.271-0.014,0.565-0.014,0.849H10.274z"/>
<path fill-rule="evenodd" clip-rule="evenodd" fill="#666666" d="M18.949,20.599c0.315,0.052,0.541,0.09,0.767,0.127
	c0.015,0.06,0.029,0.119,0.044,0.179c-0.242,0.093-0.485,0.187-0.77,0.296c0,0.286,0,0.607,0,0.999
	c0.211,0.014,0.425,0.002,0.624,0.051c0.138,0.033,0.254,0.149,0.38,0.228c-0.116,0.067-0.228,0.183-0.348,0.192
	c-0.344,0.026-0.691,0.009-1.084,0.009c0-1.203,0-2.351,0-3.5c0.486,0,0.963,0,1.439,0c0,0.041-0.001,0.08-0.001,0.12
	c-0.334,0.095-0.77,0.097-0.97,0.314C18.863,19.797,18.967,20.231,18.949,20.599z"/>
<path fill-rule="evenodd" clip-rule="evenodd" fill="#666666" d="M16.459,19.136c0.443,0,0.888,0,1.524,0
	c-0.359,1.021-0.706,2.003-1.042,2.962c0.124,0.078,0.158,0.107,0.197,0.122c0.249,0.095,0.499,0.187,0.75,0.279
	c-0.255,0.06-0.506,0.14-0.763,0.175c-0.21,0.03-0.427,0.007-0.841,0.007c0.397-1.125,0.754-2.134,1.126-3.184
	c-0.42-0.066-0.7-0.111-0.981-0.155C16.439,19.272,16.449,19.204,16.459,19.136z"/>
<path fill-rule="evenodd" clip-rule="evenodd" fill="#666666" d="M13.826,19.648c-0.307-0.161-0.507-0.266-0.708-0.371
	c0.01-0.041,0.02-0.082,0.029-0.123c0.525,0,1.049,0,1.573,0c-0.82,0.313-0.604,0.987-0.612,1.563
	c-0.007,0.502,0.005,1.004-0.004,1.505c-0.003,0.148-0.051,0.296-0.078,0.444c-0.066-0.003-0.133-0.008-0.2-0.011
	C13.826,21.634,13.826,20.612,13.826,19.648z"/>
<path fill-rule="evenodd" clip-rule="evenodd" fill="#666666" d="M15.795,20.858c0,0.502,0.014,1.004-0.01,1.504
	c-0.007,0.104-0.152,0.201-0.234,0.301c-0.062-0.096-0.18-0.192-0.182-0.289c-0.014-0.98-0.016-1.962,0-2.943
	c0.002-0.112,0.132-0.222,0.203-0.333c0.075,0.107,0.209,0.211,0.213,0.322C15.81,19.899,15.796,20.379,15.795,20.858z"/>
<path fill-rule="evenodd" clip-rule="evenodd" fill="#666666" d="M12.26,22.705c-0.062-0.131-0.179-0.262-0.181-0.395
	c-0.016-0.964-0.016-1.929,0.002-2.893c0.002-0.108,0.142-0.213,0.218-0.319c0.068,0.092,0.195,0.183,0.197,0.275
	c0.013,1.086,0.009,2.172,0.009,3.259C12.423,22.657,12.341,22.681,12.26,22.705z"/>
</svg>
