<?xml version="1.0" encoding="utf-8"?>
<!-- Generator: Adobe Illustrator 16.0.0, SVG Export Plug-In . SVG Version: 6.00 Build 0)  -->
<!DOCTYPE svg PUBLIC "-//W3C//DTD SVG 1.1//EN" "http://www.w3.org/Graphics/SVG/1.1/DTD/svg11.dtd">
<svg version="1.1" id="basis" xmlns="http://www.w3.org/2000/svg" xmlns:xlink="http://www.w3.org/1999/xlink" x="0px" y="0px"
	 width="32px" height="32px" viewBox="0 0 32 32" enable-background="new 0 0 32 32" xml:space="preserve">
<g>
	<rect x="4.63" y="8.334" fill="#666666" width="5.624" height="2.882"/>
	<rect x="11.146" y="8.334" fill="#666666" width="5.624" height="2.882"/>
	<rect x="17.731" y="8.334" fill="#666666" width="5.625" height="2.882"/>
	<rect x="24.248" y="8.334" fill="#666666" width="5.625" height="2.882"/>
	<rect x="4.594" y="12.176" fill="#666666" width="5.627" height="2.882"/>
	<path fill="#666666" d="M16.735,12.176h-5.624v2.882h5.624V12.176z M15.964,14.286h-4.081v-1.338h4.081V14.286z"/>
	<rect x="4.619" y="16.008" fill="#666666" width="5.627" height="2.88"/>
	<path fill="#666666" d="M11.137,18.888h5.626v-2.88h-5.626V18.888z M11.909,16.78h4.081v1.335h-4.081V16.78z"/>
	<rect x="4.586" y="19.85" fill="#666666" width="5.626" height="2.88"/>
	<path fill="#666666" d="M11.079,22.706h5.625v-2.882h-5.625V22.706z M11.852,20.596h4.08v1.338h-4.08V20.596z"/>
	<path fill="#666666" d="M17.734,15.063h5.625v-2.882h-5.625V15.063z M18.506,12.955h4.081v1.336h-4.081V12.955z"/>
	<path fill="#666666" d="M17.761,18.896h5.623v-2.882h-5.623V18.896z M18.533,16.785h4.079v1.338h-4.079V16.785z"/>
	<path fill="#666666" d="M17.702,22.713h5.624v-2.882h-5.624V22.713z M18.474,20.604h4.08v1.337h-4.08V20.604z"/>
	<path fill="#666666" d="M24.251,15.071h5.625v-2.882h-5.625V15.071z M25.022,12.962h4.082v1.336h-4.082V12.962z"/>
	<path fill="#666666" d="M24.278,18.902h5.623v-2.882h-5.623V18.902z M25.05,16.792h4.079v1.338H25.05V16.792z"/>
	<path fill="#666666" d="M24.218,22.718h5.625v-2.88h-5.625V22.718z M24.991,20.611h4.08v1.335h-4.08V20.611z"/>
	<polygon fill="#666666" points="2.126,5.819 2.098,26.618 3.384,26.618 3.413,7.105 29.901,7.105 29.901,5.819 	"/>
	<rect x="4.63" y="23.737" fill="#666666" width="5.626" height="2.88"/>
	<path fill="#666666" d="M11.123,26.593h5.625v-2.882h-5.625V26.593z M11.896,24.483h4.08v1.338h-4.08V24.483z"/>
	<path fill="#666666" d="M17.746,26.601h5.624v-2.882h-5.624V26.601z M18.518,24.492h4.08v1.337h-4.08V24.492z"/>
	<path fill="#666666" d="M24.262,26.606h5.625v-2.88h-5.625V26.606z M25.035,24.499h4.08v1.335h-4.08V24.499z"/>
</g>
</svg>
