<?xml version="1.0" encoding="utf-8"?>
<!-- Generator: Adobe Illustrator 16.0.0, SVG Export Plug-In . SVG Version: 6.00 Build 0)  -->
<!DOCTYPE svg PUBLIC "-//W3C//DTD SVG 1.1//EN" "http://www.w3.org/Graphics/SVG/1.1/DTD/svg11.dtd">
<svg version="1.1" id="basis" xmlns="http://www.w3.org/2000/svg" xmlns:xlink="http://www.w3.org/1999/xlink" x="0px" y="0px"
	 width="32px" height="40px" viewBox="0 0 32 40" enable-background="new 0 0 32 40" xml:space="preserve">
<path fill="#666666" d="M16.18,1.167c-6.594,0-11.94,5.345-11.94,11.94c0,6.594,5.347,11.939,11.94,11.939s11.94-5.345,11.94-11.939
	C28.12,6.511,22.773,1.167,16.18,1.167z M17.653,19.298h-2.744v-8.307h2.744V19.298z M16.281,9.437
	c-0.759,0-1.372-0.614-1.372-1.372s0.613-1.372,1.372-1.372c0.758,0,1.372,0.614,1.372,1.372S17.039,9.437,16.281,9.437z"/>
<g>
	<path fill="#666666" d="M6.883,28.601c0,0.439-0.309,0.793-0.822,0.793c-0.471,0-0.779-0.354-0.779-0.793
		c0-0.442,0.324-0.809,0.809-0.809C6.561,27.792,6.883,28.144,6.883,28.601z M5.443,37.71v-7.111h1.293v7.111H5.443z"/>
	<path fill="#666666" d="M8.884,32.522c0-0.75-0.016-1.337-0.06-1.924H9.97l0.075,1.174h0.028c0.353-0.66,1.176-1.322,2.351-1.322
		c0.985,0,2.513,0.588,2.513,3.027v4.232h-1.292v-4.1c0-1.146-0.428-2.102-1.646-2.102c-0.838,0-1.5,0.603-1.734,1.322
		c-0.058,0.162-0.088,0.383-0.088,0.603v4.276H8.884V32.522z"/>
	<path fill="#666666" d="M17.175,37.71v-6.127h-0.985v-0.984h0.985V30.26c0-0.999,0.235-1.909,0.823-2.482
		c0.484-0.471,1.131-0.662,1.733-0.662c0.47,0,0.852,0.103,1.103,0.206l-0.177,0.999c-0.191-0.087-0.441-0.162-0.822-0.162
		c-1.103,0-1.381,0.955-1.381,2.058v0.383h1.718v0.984h-1.718v6.127H17.175z"/>
	<path fill="#666666" d="M27.58,34.095c0,2.631-1.836,3.776-3.541,3.776c-1.911,0-3.409-1.411-3.409-3.659
		c0-2.365,1.573-3.762,3.526-3.762C26.198,30.45,27.58,31.935,27.58,34.095z M21.953,34.169c0,1.557,0.881,2.732,2.145,2.732
		c1.234,0,2.159-1.161,2.159-2.762c0-1.205-0.602-2.719-2.13-2.719C22.613,31.421,21.953,32.831,21.953,34.169z"/>
</g>
</svg>
